%TF.GenerationSoftware,KiCad,Pcbnew,9.0.7*%
%TF.CreationDate,2026-04-04T20:26:22+11:00*%
%TF.ProjectId,RP2350-Micro-Devboard,52503233-3530-42d4-9d69-63726f2d4465,rev?*%
%TF.SameCoordinates,Original*%
%TF.FileFunction,Copper,L1,Top*%
%TF.FilePolarity,Positive*%
%FSLAX46Y46*%
G04 Gerber Fmt 4.6, Leading zero omitted, Abs format (unit mm)*
G04 Created by KiCad (PCBNEW 9.0.7) date 2026-04-04 20:26:22*
%MOMM*%
%LPD*%
G01*
G04 APERTURE LIST*
G04 Aperture macros list*
%AMRoundRect*
0 Rectangle with rounded corners*
0 $1 Rounding radius*
0 $2 $3 $4 $5 $6 $7 $8 $9 X,Y pos of 4 corners*
0 Add a 4 corners polygon primitive as box body*
4,1,4,$2,$3,$4,$5,$6,$7,$8,$9,$2,$3,0*
0 Add four circle primitives for the rounded corners*
1,1,$1+$1,$2,$3*
1,1,$1+$1,$4,$5*
1,1,$1+$1,$6,$7*
1,1,$1+$1,$8,$9*
0 Add four rect primitives between the rounded corners*
20,1,$1+$1,$2,$3,$4,$5,0*
20,1,$1+$1,$4,$5,$6,$7,0*
20,1,$1+$1,$6,$7,$8,$9,0*
20,1,$1+$1,$8,$9,$2,$3,0*%
%AMFreePoly0*
4,1,18,-0.437500,0.050000,-0.433694,0.069134,-0.422855,0.085355,-0.406634,0.096194,-0.387500,0.100000,0.387500,0.100000,0.437500,0.050000,0.437500,-0.050000,0.433694,-0.069134,0.422855,-0.085355,0.406634,-0.096194,0.387500,-0.100000,-0.387500,-0.100000,-0.406634,-0.096194,-0.422855,-0.085355,-0.433694,-0.069134,-0.437500,-0.050000,-0.437500,0.050000,-0.437500,0.050000,$1*%
%AMFreePoly1*
4,1,18,-0.437500,0.050000,-0.433694,0.069134,-0.422855,0.085355,-0.406634,0.096194,-0.387500,0.100000,0.387500,0.100000,0.406634,0.096194,0.422855,0.085355,0.433694,0.069134,0.437500,0.050000,0.437500,-0.050000,0.387500,-0.100000,-0.387500,-0.100000,-0.406634,-0.096194,-0.422855,-0.085355,-0.433694,-0.069134,-0.437500,-0.050000,-0.437500,0.050000,-0.437500,0.050000,$1*%
%AMFreePoly2*
4,1,18,-0.100000,0.387500,-0.050000,0.437500,0.050000,0.437500,0.069134,0.433694,0.085355,0.422855,0.096194,0.406634,0.100000,0.387500,0.100000,-0.387500,0.096194,-0.406634,0.085355,-0.422855,0.069134,-0.433694,0.050000,-0.437500,-0.050000,-0.437500,-0.069134,-0.433694,-0.085355,-0.422855,-0.096194,-0.406634,-0.100000,-0.387500,-0.100000,0.387500,-0.100000,0.387500,$1*%
%AMFreePoly3*
4,1,18,-0.100000,0.387500,-0.096194,0.406634,-0.085355,0.422855,-0.069134,0.433694,-0.050000,0.437500,0.050000,0.437500,0.100000,0.387500,0.100000,-0.387500,0.096194,-0.406634,0.085355,-0.422855,0.069134,-0.433694,0.050000,-0.437500,-0.050000,-0.437500,-0.069134,-0.433694,-0.085355,-0.422855,-0.096194,-0.406634,-0.100000,-0.387500,-0.100000,0.387500,-0.100000,0.387500,$1*%
%AMFreePoly4*
4,1,18,-0.437500,0.050000,-0.433694,0.069134,-0.422855,0.085355,-0.406634,0.096194,-0.387500,0.100000,0.387500,0.100000,0.406634,0.096194,0.422855,0.085355,0.433694,0.069134,0.437500,0.050000,0.437500,-0.050000,0.433694,-0.069134,0.422855,-0.085355,0.406634,-0.096194,0.387500,-0.100000,-0.387500,-0.100000,-0.437500,-0.050000,-0.437500,0.050000,-0.437500,0.050000,$1*%
%AMFreePoly5*
4,1,18,-0.437500,0.050000,-0.387500,0.100000,0.387500,0.100000,0.406634,0.096194,0.422855,0.085355,0.433694,0.069134,0.437500,0.050000,0.437500,-0.050000,0.433694,-0.069134,0.422855,-0.085355,0.406634,-0.096194,0.387500,-0.100000,-0.387500,-0.100000,-0.406634,-0.096194,-0.422855,-0.085355,-0.433694,-0.069134,-0.437500,-0.050000,-0.437500,0.050000,-0.437500,0.050000,$1*%
%AMFreePoly6*
4,1,18,-0.100000,0.387500,-0.096194,0.406634,-0.085355,0.422855,-0.069134,0.433694,-0.050000,0.437500,0.050000,0.437500,0.069134,0.433694,0.085355,0.422855,0.096194,0.406634,0.100000,0.387500,0.100000,-0.387500,0.050000,-0.437500,-0.050000,-0.437500,-0.069134,-0.433694,-0.085355,-0.422855,-0.096194,-0.406634,-0.100000,-0.387500,-0.100000,0.387500,-0.100000,0.387500,$1*%
%AMFreePoly7*
4,1,18,-0.100000,0.387500,-0.096194,0.406634,-0.085355,0.422855,-0.069134,0.433694,-0.050000,0.437500,0.050000,0.437500,0.069134,0.433694,0.085355,0.422855,0.096194,0.406634,0.100000,0.387500,0.100000,-0.387500,0.096194,-0.406634,0.085355,-0.422855,0.069134,-0.433694,0.050000,-0.437500,-0.050000,-0.437500,-0.100000,-0.387500,-0.100000,0.387500,-0.100000,0.387500,$1*%
G04 Aperture macros list end*
%TA.AperFunction,SMDPad,CuDef*%
%ADD10RoundRect,0.140000X0.170000X-0.140000X0.170000X0.140000X-0.170000X0.140000X-0.170000X-0.140000X0*%
%TD*%
%TA.AperFunction,ComponentPad*%
%ADD11R,1.700000X1.700000*%
%TD*%
%TA.AperFunction,ComponentPad*%
%ADD12C,1.700000*%
%TD*%
%TA.AperFunction,SMDPad,CuDef*%
%ADD13RoundRect,0.250000X-0.450000X-0.350000X0.450000X-0.350000X0.450000X0.350000X-0.450000X0.350000X0*%
%TD*%
%TA.AperFunction,SMDPad,CuDef*%
%ADD14RoundRect,0.225000X0.250000X-0.225000X0.250000X0.225000X-0.250000X0.225000X-0.250000X-0.225000X0*%
%TD*%
%TA.AperFunction,SMDPad,CuDef*%
%ADD15RoundRect,0.147500X-0.172500X0.147500X-0.172500X-0.147500X0.172500X-0.147500X0.172500X0.147500X0*%
%TD*%
%TA.AperFunction,SMDPad,CuDef*%
%ADD16RoundRect,0.140000X-0.170000X0.140000X-0.170000X-0.140000X0.170000X-0.140000X0.170000X0.140000X0*%
%TD*%
%TA.AperFunction,SMDPad,CuDef*%
%ADD17RoundRect,0.135000X-0.185000X0.135000X-0.185000X-0.135000X0.185000X-0.135000X0.185000X0.135000X0*%
%TD*%
%TA.AperFunction,SMDPad,CuDef*%
%ADD18RoundRect,0.140000X-0.140000X-0.170000X0.140000X-0.170000X0.140000X0.170000X-0.140000X0.170000X0*%
%TD*%
%TA.AperFunction,SMDPad,CuDef*%
%ADD19RoundRect,0.140000X0.140000X0.170000X-0.140000X0.170000X-0.140000X-0.170000X0.140000X-0.170000X0*%
%TD*%
%TA.AperFunction,SMDPad,CuDef*%
%ADD20RoundRect,0.225000X-0.250000X0.225000X-0.250000X-0.225000X0.250000X-0.225000X0.250000X0.225000X0*%
%TD*%
%TA.AperFunction,SMDPad,CuDef*%
%ADD21RoundRect,0.135000X0.185000X-0.135000X0.185000X0.135000X-0.185000X0.135000X-0.185000X-0.135000X0*%
%TD*%
%TA.AperFunction,SMDPad,CuDef*%
%ADD22RoundRect,0.140000X-0.021213X0.219203X-0.219203X0.021213X0.021213X-0.219203X0.219203X-0.021213X0*%
%TD*%
%TA.AperFunction,SMDPad,CuDef*%
%ADD23R,0.400000X1.750000*%
%TD*%
%TA.AperFunction,SMDPad,CuDef*%
%ADD24R,1.825000X0.700000*%
%TD*%
%TA.AperFunction,SMDPad,CuDef*%
%ADD25R,2.000000X1.460000*%
%TD*%
%TA.AperFunction,SMDPad,CuDef*%
%ADD26RoundRect,0.384800X0.265200X1.240200X-0.265200X1.240200X-0.265200X-1.240200X0.265200X-1.240200X0*%
%TD*%
%TA.AperFunction,ComponentPad*%
%ADD27O,1.300000X1.800000*%
%TD*%
%TA.AperFunction,ComponentPad*%
%ADD28O,1.050000X1.450000*%
%TD*%
%TA.AperFunction,SMDPad,CuDef*%
%ADD29R,1.425000X2.500000*%
%TD*%
%TA.AperFunction,SMDPad,CuDef*%
%ADD30RoundRect,0.150000X-0.587500X-0.150000X0.587500X-0.150000X0.587500X0.150000X-0.587500X0.150000X0*%
%TD*%
%TA.AperFunction,SMDPad,CuDef*%
%ADD31RoundRect,0.140000X0.021213X-0.219203X0.219203X-0.021213X-0.021213X0.219203X-0.219203X0.021213X0*%
%TD*%
%TA.AperFunction,SMDPad,CuDef*%
%ADD32FreePoly0,0.000000*%
%TD*%
%TA.AperFunction,SMDPad,CuDef*%
%ADD33RoundRect,0.050000X-0.387500X-0.050000X0.387500X-0.050000X0.387500X0.050000X-0.387500X0.050000X0*%
%TD*%
%TA.AperFunction,SMDPad,CuDef*%
%ADD34FreePoly1,0.000000*%
%TD*%
%TA.AperFunction,SMDPad,CuDef*%
%ADD35FreePoly2,0.000000*%
%TD*%
%TA.AperFunction,SMDPad,CuDef*%
%ADD36RoundRect,0.050000X-0.050000X-0.387500X0.050000X-0.387500X0.050000X0.387500X-0.050000X0.387500X0*%
%TD*%
%TA.AperFunction,SMDPad,CuDef*%
%ADD37FreePoly3,0.000000*%
%TD*%
%TA.AperFunction,SMDPad,CuDef*%
%ADD38FreePoly4,0.000000*%
%TD*%
%TA.AperFunction,SMDPad,CuDef*%
%ADD39FreePoly5,0.000000*%
%TD*%
%TA.AperFunction,SMDPad,CuDef*%
%ADD40FreePoly6,0.000000*%
%TD*%
%TA.AperFunction,SMDPad,CuDef*%
%ADD41FreePoly7,0.000000*%
%TD*%
%TA.AperFunction,ComponentPad*%
%ADD42C,0.600000*%
%TD*%
%TA.AperFunction,SMDPad,CuDef*%
%ADD43RoundRect,0.153000X1.547000X-1.547000X1.547000X1.547000X-1.547000X1.547000X-1.547000X-1.547000X0*%
%TD*%
%TA.AperFunction,ViaPad*%
%ADD44C,0.500000*%
%TD*%
%TA.AperFunction,ViaPad*%
%ADD45C,0.600000*%
%TD*%
%TA.AperFunction,ViaPad*%
%ADD46C,0.400000*%
%TD*%
%TA.AperFunction,ViaPad*%
%ADD47C,0.250000*%
%TD*%
%TA.AperFunction,Conductor*%
%ADD48C,0.200000*%
%TD*%
%TA.AperFunction,Conductor*%
%ADD49C,0.100000*%
%TD*%
%TA.AperFunction,Conductor*%
%ADD50C,0.500000*%
%TD*%
%TA.AperFunction,Conductor*%
%ADD51C,1.000000*%
%TD*%
%TA.AperFunction,Conductor*%
%ADD52C,0.150000*%
%TD*%
%TA.AperFunction,Conductor*%
%ADD53C,0.190000*%
%TD*%
G04 APERTURE END LIST*
D10*
%TO.P,C16,1*%
%TO.N,+3V3*%
X155225000Y-63030000D03*
%TO.P,C16,2*%
%TO.N,GND*%
X155225000Y-62070000D03*
%TD*%
D11*
%TO.P,J3,1,Pin_1*%
%TO.N,/GPIO7*%
X161075000Y-74725000D03*
D12*
%TO.P,J3,2,Pin_2*%
%TO.N,/GPIO26*%
X161075000Y-72185000D03*
%TO.P,J3,3,Pin_3*%
%TO.N,/GPIO27*%
X161075000Y-69645000D03*
%TO.P,J3,4,Pin_4*%
%TO.N,/GPIO28*%
X161075000Y-67105000D03*
%TO.P,J3,5,Pin_5*%
%TO.N,+3V3*%
X161075000Y-64565000D03*
%TO.P,J3,6,Pin_6*%
%TO.N,GND*%
X161075000Y-62025000D03*
%TO.P,J3,7,Pin_7*%
%TO.N,/VBUS*%
X161075000Y-59485000D03*
%TD*%
D13*
%TO.P,Y1,1,1*%
%TO.N,/XIN*%
X150100000Y-76250000D03*
%TO.P,Y1,2,G*%
%TO.N,GND*%
X152300000Y-76250000D03*
%TO.P,Y1,3,3*%
%TO.N,Net-(C14-Pad1)*%
X152300000Y-74550000D03*
%TO.P,Y1,4,G*%
%TO.N,GND*%
X150100000Y-74550000D03*
%TD*%
D14*
%TO.P,C12,1*%
%TO.N,+3V3*%
X147750000Y-60425000D03*
%TO.P,C12,2*%
%TO.N,GND*%
X147750000Y-58875000D03*
%TD*%
D15*
%TO.P,L1,1,1*%
%TO.N,+1V1*%
X157100000Y-62090000D03*
%TO.P,L1,2,2*%
%TO.N,/VREG_LX*%
X157100000Y-63060000D03*
%TD*%
D16*
%TO.P,C7,1*%
%TO.N,+3V3*%
X157775000Y-69900000D03*
%TO.P,C7,2*%
%TO.N,GND*%
X157775000Y-70860000D03*
%TD*%
%TO.P,C10,1*%
%TO.N,+1V1*%
X158700000Y-69890000D03*
%TO.P,C10,2*%
%TO.N,GND*%
X158700000Y-70850000D03*
%TD*%
D17*
%TO.P,R3,1*%
%TO.N,/USB_D+*%
X153300000Y-62965000D03*
%TO.P,R3,2*%
%TO.N,Net-(U2-USB_DP)*%
X153300000Y-63985000D03*
%TD*%
D11*
%TO.P,J2,1,Pin_1*%
%TO.N,/GPIO0*%
X145175000Y-59485000D03*
D12*
%TO.P,J2,2,Pin_2*%
%TO.N,/GPIO1*%
X145175000Y-62025000D03*
%TO.P,J2,3,Pin_3*%
%TO.N,/GPIO2*%
X145175000Y-64565000D03*
%TO.P,J2,4,Pin_4*%
%TO.N,/GPIO3*%
X145175000Y-67105000D03*
%TO.P,J2,5,Pin_5*%
%TO.N,/GPIO4*%
X145175000Y-69645000D03*
%TO.P,J2,6,Pin_6*%
%TO.N,/GPIO5*%
X145175000Y-72185000D03*
%TO.P,J2,7,Pin_7*%
%TO.N,/GPIO6*%
X145175000Y-74725000D03*
%TD*%
D10*
%TO.P,C15,1*%
%TO.N,/VREG_AVDD*%
X158750000Y-63455000D03*
%TO.P,C15,2*%
%TO.N,GND*%
X158750000Y-62495000D03*
%TD*%
%TO.P,C13,1*%
%TO.N,/XIN*%
X148600000Y-76700000D03*
%TO.P,C13,2*%
%TO.N,GND*%
X148600000Y-75740000D03*
%TD*%
%TO.P,C4,1*%
%TO.N,+3V3*%
X156150000Y-63035000D03*
%TO.P,C4,2*%
%TO.N,GND*%
X156150000Y-62075000D03*
%TD*%
D18*
%TO.P,C5,1*%
%TO.N,+3V3*%
X157750000Y-66325000D03*
%TO.P,C5,2*%
%TO.N,GND*%
X158710000Y-66325000D03*
%TD*%
D17*
%TO.P,R4,1*%
%TO.N,/USB_D-*%
X154250000Y-62965000D03*
%TO.P,R4,2*%
%TO.N,Net-(U2-USB_DM)*%
X154250000Y-63985000D03*
%TD*%
D19*
%TO.P,C8,1*%
%TO.N,+1V1*%
X148335000Y-67550000D03*
%TO.P,C8,2*%
%TO.N,GND*%
X147375000Y-67550000D03*
%TD*%
D20*
%TO.P,C11,1*%
%TO.N,/VBUS*%
X152075000Y-62125000D03*
%TO.P,C11,2*%
%TO.N,GND*%
X152075000Y-63675000D03*
%TD*%
D17*
%TO.P,R5,1*%
%TO.N,/XOUT*%
X153800000Y-74055000D03*
%TO.P,R5,2*%
%TO.N,Net-(C14-Pad1)*%
X153800000Y-75075000D03*
%TD*%
D21*
%TO.P,R8,1*%
%TO.N,+3V3*%
X158750000Y-61625000D03*
%TO.P,R8,2*%
%TO.N,/VREG_AVDD*%
X158750000Y-60605000D03*
%TD*%
D18*
%TO.P,C9,1*%
%TO.N,+1V1*%
X153645000Y-73175000D03*
%TO.P,C9,2*%
%TO.N,GND*%
X154605000Y-73175000D03*
%TD*%
D22*
%TO.P,C6,1*%
%TO.N,+3V3*%
X148339411Y-70635589D03*
%TO.P,C6,2*%
%TO.N,GND*%
X147660589Y-71314411D03*
%TD*%
D19*
%TO.P,C2,1*%
%TO.N,+3V3*%
X156430000Y-73175000D03*
%TO.P,C2,2*%
%TO.N,GND*%
X155470000Y-73175000D03*
%TD*%
D23*
%TO.P,J4,1,VBUS*%
%TO.N,/VBUS*%
X154575000Y-59750000D03*
%TO.P,J4,2,D-*%
%TO.N,/USB_D-*%
X153925000Y-59750000D03*
%TO.P,J4,3,D+*%
%TO.N,/USB_D+*%
X153275000Y-59750000D03*
%TO.P,J4,4,ID*%
%TO.N,unconnected-(J4-ID-Pad4)*%
X152625000Y-59750000D03*
%TO.P,J4,5,GND*%
%TO.N,GND*%
X151975000Y-59750000D03*
D24*
%TO.P,J4,6,Shield*%
X156262500Y-58625000D03*
D25*
X156175000Y-59955000D03*
D26*
X156000000Y-57350000D03*
D27*
X156000000Y-56925000D03*
D28*
X155700000Y-59955000D03*
D29*
X154237500Y-56675000D03*
X152312500Y-56675000D03*
D28*
X150850000Y-59955000D03*
D26*
X150550000Y-57350000D03*
D27*
X150550000Y-56925000D03*
D25*
X150375000Y-59955000D03*
D24*
X150287500Y-58625000D03*
%TD*%
D30*
%TO.P,U1,1,GND*%
%TO.N,GND*%
X148475000Y-61750000D03*
%TO.P,U1,2,VO*%
%TO.N,+3V3*%
X148475000Y-63650000D03*
%TO.P,U1,3,VI*%
%TO.N,/VBUS*%
X150350000Y-62700000D03*
%TD*%
D31*
%TO.P,C3,1*%
%TO.N,+3V3*%
X157925000Y-65225000D03*
%TO.P,C3,2*%
%TO.N,GND*%
X158603822Y-64546178D03*
%TD*%
D32*
%TO.P,U2,1,IOVDD*%
%TO.N,+3V3*%
X149712500Y-65762500D03*
D33*
%TO.P,U2,2,GPIO0*%
%TO.N,/GPIO0*%
X149712500Y-66162500D03*
%TO.P,U2,3,GPIO1*%
%TO.N,/GPIO1*%
X149712500Y-66562500D03*
%TO.P,U2,4,GPIO2*%
%TO.N,/GPIO2*%
X149712500Y-66962500D03*
%TO.P,U2,5,GPIO3*%
%TO.N,/GPIO3*%
X149712500Y-67362500D03*
%TO.P,U2,6,DVDD*%
%TO.N,+1V1*%
X149712500Y-67762500D03*
%TO.P,U2,7,GPIO4*%
%TO.N,/GPIO4*%
X149712500Y-68162500D03*
%TO.P,U2,8,GPIO5*%
%TO.N,/GPIO5*%
X149712500Y-68562500D03*
%TO.P,U2,9,GPIO6*%
%TO.N,/GPIO6*%
X149712500Y-68962500D03*
%TO.P,U2,10,GPIO7*%
%TO.N,/GPIO7*%
X149712500Y-69362500D03*
%TO.P,U2,11,IOVDD*%
%TO.N,+3V3*%
X149712500Y-69762500D03*
%TO.P,U2,12,GPIO8*%
%TO.N,unconnected-(U2-GPIO8-Pad12)*%
X149712500Y-70162500D03*
%TO.P,U2,13,GPIO9*%
%TO.N,unconnected-(U2-GPIO9-Pad13)*%
X149712500Y-70562500D03*
%TO.P,U2,14,GPIO10*%
%TO.N,unconnected-(U2-GPIO10-Pad14)*%
X149712500Y-70962500D03*
D34*
%TO.P,U2,15,GPIO11*%
%TO.N,unconnected-(U2-GPIO11-Pad15)*%
X149712500Y-71362500D03*
D35*
%TO.P,U2,16,GPIO12*%
%TO.N,unconnected-(U2-GPIO12-Pad16)*%
X150350000Y-72000000D03*
D36*
%TO.P,U2,17,GPIO13*%
%TO.N,unconnected-(U2-GPIO13-Pad17)*%
X150750000Y-72000000D03*
%TO.P,U2,18,GPIO14*%
%TO.N,unconnected-(U2-GPIO14-Pad18)*%
X151150000Y-72000000D03*
%TO.P,U2,19,GPIO15*%
%TO.N,unconnected-(U2-GPIO15-Pad19)*%
X151550000Y-72000000D03*
%TO.P,U2,20,IOVDD*%
%TO.N,+3V3*%
X151950000Y-72000000D03*
%TO.P,U2,21,XIN*%
%TO.N,/XIN*%
X152350000Y-72000000D03*
%TO.P,U2,22,XOUT*%
%TO.N,/XOUT*%
X152750000Y-72000000D03*
%TO.P,U2,23,DVDD*%
%TO.N,+1V1*%
X153150000Y-72000000D03*
%TO.P,U2,24,SWCLK*%
%TO.N,unconnected-(U2-SWCLK-Pad24)*%
X153550000Y-72000000D03*
%TO.P,U2,25,SWD*%
%TO.N,unconnected-(U2-SWD-Pad25)*%
X153950000Y-72000000D03*
%TO.P,U2,26,RUN*%
%TO.N,Net-(U2-RUN)*%
X154350000Y-72000000D03*
%TO.P,U2,27,GPIO16*%
%TO.N,unconnected-(U2-GPIO16-Pad27)*%
X154750000Y-72000000D03*
%TO.P,U2,28,GPIO17*%
%TO.N,unconnected-(U2-GPIO17-Pad28)*%
X155150000Y-72000000D03*
%TO.P,U2,29,GPIO18*%
%TO.N,unconnected-(U2-GPIO18-Pad29)*%
X155550000Y-72000000D03*
D37*
%TO.P,U2,30,IOVDD*%
%TO.N,+3V3*%
X155950000Y-72000000D03*
D38*
%TO.P,U2,31,GPIO19*%
%TO.N,unconnected-(U2-GPIO19-Pad31)*%
X156587500Y-71362500D03*
D33*
%TO.P,U2,32,GPIO20*%
%TO.N,unconnected-(U2-GPIO20-Pad32)*%
X156587500Y-70962500D03*
%TO.P,U2,33,GPIO21*%
%TO.N,unconnected-(U2-GPIO21-Pad33)*%
X156587500Y-70562500D03*
%TO.P,U2,34,GPIO22*%
%TO.N,unconnected-(U2-GPIO22-Pad34)*%
X156587500Y-70162500D03*
%TO.P,U2,35,GPIO23*%
%TO.N,unconnected-(U2-GPIO23-Pad35)*%
X156587500Y-69762500D03*
%TO.P,U2,36,GPIO24*%
%TO.N,unconnected-(U2-GPIO24-Pad36)*%
X156587500Y-69362500D03*
%TO.P,U2,37,GPIO25*%
%TO.N,unconnected-(U2-GPIO25-Pad37)*%
X156587500Y-68962500D03*
%TO.P,U2,38,IOVDD*%
%TO.N,+3V3*%
X156587500Y-68562500D03*
%TO.P,U2,39,DVDD*%
%TO.N,+1V1*%
X156587500Y-68162500D03*
%TO.P,U2,40,GPIO26_ADC0*%
%TO.N,/GPIO26*%
X156587500Y-67762500D03*
%TO.P,U2,41,GPIO27_ADC1*%
%TO.N,/GPIO27*%
X156587500Y-67362500D03*
%TO.P,U2,42,GPIO28_ADC2*%
%TO.N,/GPIO28*%
X156587500Y-66962500D03*
%TO.P,U2,43,GPIO29_ADC3*%
%TO.N,unconnected-(U2-GPIO29_ADC3-Pad43)*%
X156587500Y-66562500D03*
%TO.P,U2,44,ADC_AVDD*%
%TO.N,+3V3*%
X156587500Y-66162500D03*
D39*
%TO.P,U2,45,IOVDD*%
X156587500Y-65762500D03*
D40*
%TO.P,U2,46,VREG_AVDD*%
%TO.N,/VREG_AVDD*%
X155950000Y-65125000D03*
D36*
%TO.P,U2,47,VREG_PGND*%
%TO.N,GND*%
X155550000Y-65125000D03*
%TO.P,U2,48,VREG_LX*%
%TO.N,/VREG_LX*%
X155150000Y-65125000D03*
%TO.P,U2,49,VREG_VIN*%
%TO.N,+3V3*%
X154750000Y-65125000D03*
%TO.P,U2,50,VREG_FB*%
%TO.N,+1V1*%
X154350000Y-65125000D03*
%TO.P,U2,51,USB_DM*%
%TO.N,Net-(U2-USB_DM)*%
X153950000Y-65125000D03*
%TO.P,U2,52,USB_DP*%
%TO.N,Net-(U2-USB_DP)*%
X153550000Y-65125000D03*
%TO.P,U2,53,USB_OTP_VDD*%
%TO.N,+3V3*%
X153150000Y-65125000D03*
%TO.P,U2,54,QSPI_IOVDD*%
X152750000Y-65125000D03*
%TO.P,U2,55,QSPI_SD3*%
%TO.N,unconnected-(U2-QSPI_SD3-Pad55)*%
X152350000Y-65125000D03*
%TO.P,U2,56,QSPI_SCLK*%
%TO.N,unconnected-(U2-QSPI_SCLK-Pad56)*%
X151950000Y-65125000D03*
%TO.P,U2,57,QSPI_SD0*%
%TO.N,unconnected-(U2-QSPI_SD0-Pad57)*%
X151550000Y-65125000D03*
%TO.P,U2,58,QSPI_SD2*%
%TO.N,unconnected-(U2-QSPI_SD2-Pad58)*%
X151150000Y-65125000D03*
%TO.P,U2,59,QSPI_SD1*%
%TO.N,unconnected-(U2-QSPI_SD1-Pad59)*%
X150750000Y-65125000D03*
D41*
%TO.P,U2,60,QSPI_SS*%
%TO.N,Net-(U2-QSPI_SS)*%
X150350000Y-65125000D03*
D42*
%TO.P,U2,61,GND*%
%TO.N,GND*%
X151775000Y-67187500D03*
X151775000Y-68562500D03*
X151775000Y-69937500D03*
X153150000Y-67187500D03*
X153150000Y-68562500D03*
D43*
X153150000Y-68562500D03*
D42*
X153150000Y-69937500D03*
X154525000Y-67187500D03*
X154525000Y-68562500D03*
X154525000Y-69937500D03*
%TD*%
D16*
%TO.P,C14,1*%
%TO.N,Net-(C14-Pad1)*%
X153800000Y-75945000D03*
%TO.P,C14,2*%
%TO.N,GND*%
X153800000Y-76905000D03*
%TD*%
D19*
%TO.P,C1,1*%
%TO.N,+3V3*%
X151075000Y-73150000D03*
%TO.P,C1,2*%
%TO.N,GND*%
X150115000Y-73150000D03*
%TD*%
D44*
%TO.N,+3V3*%
X148794863Y-70144863D03*
X155710569Y-66410124D03*
D45*
X150750000Y-63875000D03*
X158000000Y-73125000D03*
X151400000Y-66275000D03*
D46*
X155650000Y-69375000D03*
D45*
%TO.N,GND*%
X159425000Y-65500000D03*
X146900000Y-68625000D03*
X158050000Y-75475000D03*
X159481618Y-64556618D03*
X147900000Y-72975000D03*
D44*
X154625000Y-61850000D03*
X152530001Y-62996413D03*
D47*
X155807485Y-64261485D03*
D45*
X158075000Y-58850000D03*
D47*
%TO.N,+1V1*%
X154699555Y-66204493D03*
X157675000Y-62090000D03*
D45*
%TO.N,/VBUS*%
X155700000Y-61300000D03*
X150700000Y-61775000D03*
D47*
%TO.N,/GPIO7*%
X150525000Y-69375000D03*
D45*
%TO.N,Net-(U2-RUN)*%
X155425000Y-70900000D03*
%TO.N,Net-(U2-QSPI_SS)*%
X150675000Y-67000000D03*
%TD*%
D48*
%TO.N,+3V3*%
X148475000Y-63650000D02*
X147436500Y-62611500D01*
X154875000Y-64300340D02*
X154875000Y-63380000D01*
X149177226Y-69762500D02*
X148314411Y-70625315D01*
X148314411Y-70625315D02*
X148314411Y-70635589D01*
X150245774Y-69762500D02*
X149712500Y-69762500D01*
X157775000Y-69200000D02*
X157775000Y-69900000D01*
X151950000Y-72000000D02*
X151950000Y-72575000D01*
X158750000Y-61625000D02*
X158817550Y-61625000D01*
X156486500Y-65863500D02*
X155700000Y-65863500D01*
X155675000Y-69350000D02*
X155650000Y-69375000D01*
X155675000Y-68875000D02*
X155675000Y-69350000D01*
X157950000Y-73175000D02*
X158000000Y-73125000D01*
X156145000Y-63030000D02*
X156150000Y-63035000D01*
X156587500Y-66162500D02*
X156587500Y-65762500D01*
X149712500Y-69762500D02*
X149177226Y-69762500D01*
X150525000Y-63650000D02*
X150750000Y-63875000D01*
X153150000Y-65125000D02*
X153150000Y-65300000D01*
X155700000Y-65863500D02*
X154953226Y-65863500D01*
X152175000Y-66275000D02*
X151400000Y-66275000D01*
X148475000Y-63650000D02*
X150525000Y-63650000D01*
X154750000Y-65125000D02*
X154750000Y-64425340D01*
X153150000Y-65300000D02*
X152175000Y-66275000D01*
X156587500Y-65762500D02*
X156486500Y-65863500D01*
X158817550Y-61625000D02*
X161075000Y-63882450D01*
X157387500Y-65762500D02*
X157885589Y-65264411D01*
X157137500Y-68562500D02*
X157775000Y-69200000D01*
X155950000Y-72695000D02*
X156430000Y-73175000D01*
X150246774Y-69761500D02*
X150245774Y-69762500D01*
X152750000Y-65125000D02*
X153150000Y-65125000D01*
X157537500Y-66162500D02*
X157750000Y-66375000D01*
X155710569Y-66385569D02*
X155700000Y-66375000D01*
X151950000Y-72575000D02*
X151375000Y-73150000D01*
X148475000Y-63650000D02*
X149712500Y-64887500D01*
X151375000Y-73150000D02*
X151075000Y-73150000D01*
X161075000Y-63882450D02*
X161075000Y-64565000D01*
X150451000Y-69965726D02*
X150246774Y-69761500D01*
X156587500Y-65762500D02*
X157387500Y-65762500D01*
X156587500Y-68562500D02*
X155987500Y-68562500D01*
X147436500Y-60738500D02*
X147750000Y-60425000D01*
X150451000Y-70501000D02*
X150451000Y-69965726D01*
X155225000Y-63030000D02*
X156145000Y-63030000D01*
X155700000Y-66375000D02*
X155700000Y-65863500D01*
X154750000Y-65660274D02*
X154750000Y-65125000D01*
X149712500Y-64887500D02*
X149712500Y-65762500D01*
X155950000Y-72000000D02*
X155950000Y-72695000D01*
X151625000Y-71125000D02*
X151075000Y-71125000D01*
X151950000Y-72000000D02*
X151950000Y-71450000D01*
X155987500Y-68562500D02*
X155675000Y-68875000D01*
X151950000Y-71450000D02*
X151625000Y-71125000D01*
X156587500Y-68562500D02*
X157137500Y-68562500D01*
X151075000Y-71125000D02*
X150451000Y-70501000D01*
X154750000Y-64425340D02*
X154875000Y-64300340D01*
X154953226Y-65863500D02*
X154750000Y-65660274D01*
X154875000Y-63380000D02*
X155225000Y-63030000D01*
X156430000Y-73175000D02*
X157950000Y-73175000D01*
X155710569Y-66410124D02*
X155710569Y-66385569D01*
X147436500Y-62611500D02*
X147436500Y-60738500D01*
X156587500Y-66162500D02*
X157537500Y-66162500D01*
%TO.N,GND*%
X148600000Y-75740000D02*
X148910000Y-75740000D01*
X147375000Y-67550000D02*
X147375000Y-68150000D01*
X153694000Y-76799000D02*
X153800000Y-76799000D01*
D49*
X155599000Y-65076000D02*
X155599000Y-64601000D01*
D48*
X152075000Y-63430319D02*
X152075000Y-63675000D01*
X150100000Y-74550000D02*
X149475000Y-74550000D01*
X150270000Y-59955000D02*
X150850000Y-59955000D01*
X151225000Y-56675000D02*
X150550000Y-57350000D01*
X153650000Y-76526000D02*
X154156550Y-76526000D01*
X153800000Y-76905000D02*
X156620000Y-76905000D01*
X158603822Y-64546178D02*
X159425000Y-65367356D01*
X147900000Y-71578822D02*
X147635589Y-71314411D01*
D50*
X156000000Y-56925000D02*
X156000000Y-59655000D01*
D48*
X148910000Y-75740000D02*
X150100000Y-74550000D01*
X149475000Y-74550000D02*
X147900000Y-72975000D01*
X153650000Y-76755000D02*
X153694000Y-76799000D01*
D51*
X152312500Y-56675000D02*
X154237500Y-56675000D01*
D48*
X157775000Y-70860000D02*
X158601000Y-71686000D01*
X148475000Y-61750000D02*
X150270000Y-59955000D01*
X152530001Y-62996413D02*
X152508906Y-62996413D01*
X158601000Y-71686000D02*
X158601000Y-74924000D01*
X158075000Y-58850000D02*
X157280000Y-58850000D01*
X159361000Y-64436000D02*
X159361000Y-63789000D01*
X155470000Y-73175000D02*
X157770000Y-75475000D01*
X152955000Y-76905000D02*
X152300000Y-76250000D01*
X159481618Y-64556618D02*
X159361000Y-64436000D01*
D49*
X155807485Y-64392515D02*
X155807485Y-64261485D01*
D50*
X150287500Y-58625000D02*
X148000000Y-58625000D01*
D49*
X155599000Y-64601000D02*
X155807485Y-64392515D01*
D48*
X152508906Y-62996413D02*
X152075000Y-63430319D01*
X157280000Y-58850000D02*
X156175000Y-59955000D01*
D51*
X154237500Y-56675000D02*
X155750000Y-56675000D01*
D48*
X152576000Y-76526000D02*
X153650000Y-76526000D01*
X147375000Y-68150000D02*
X146900000Y-68625000D01*
X152275000Y-63675000D02*
X152075000Y-63675000D01*
X155230000Y-62075000D02*
X155225000Y-62070000D01*
X157775000Y-70860000D02*
X158690000Y-70860000D01*
X158710000Y-66375000D02*
X158710000Y-64731178D01*
X155225000Y-62070000D02*
X154845000Y-62070000D01*
X148000000Y-58625000D02*
X147750000Y-58875000D01*
X158750000Y-62495000D02*
X159361000Y-63106000D01*
X156620000Y-76905000D02*
X158050000Y-75475000D01*
X154156550Y-76526000D02*
X155470000Y-75212550D01*
X156150000Y-62075000D02*
X155230000Y-62075000D01*
X158690000Y-70860000D02*
X158700000Y-70850000D01*
X154525000Y-67187500D02*
X153150000Y-67187500D01*
X152530001Y-62996413D02*
X152601094Y-62925319D01*
X157770000Y-75475000D02*
X158050000Y-75475000D01*
X150100000Y-73165000D02*
X150115000Y-73150000D01*
X159452647Y-64585589D02*
X159481618Y-64556618D01*
X152601094Y-62925319D02*
X152646380Y-62925319D01*
X150100000Y-74550000D02*
X150100000Y-73165000D01*
X153650000Y-76526000D02*
X153650000Y-76755000D01*
X150850000Y-57650000D02*
X150550000Y-57350000D01*
X154845000Y-62070000D02*
X154625000Y-61850000D01*
X155470000Y-75212550D02*
X155470000Y-73175000D01*
X159361000Y-63106000D02*
X159361000Y-63789000D01*
X156000000Y-59655000D02*
X155700000Y-59955000D01*
X152300000Y-76250000D02*
X152576000Y-76526000D01*
D50*
X150850000Y-59955000D02*
X150850000Y-57650000D01*
D48*
X155750000Y-56675000D02*
X156000000Y-56925000D01*
X158601000Y-74924000D02*
X158050000Y-75475000D01*
D49*
X155550000Y-65125000D02*
X155550000Y-64745396D01*
D48*
X155470000Y-73175000D02*
X154605000Y-73175000D01*
X156175000Y-59955000D02*
X156175000Y-59950000D01*
X147900000Y-72975000D02*
X147900000Y-71578822D01*
X158564411Y-64585589D02*
X159452647Y-64585589D01*
X153800000Y-76905000D02*
X152955000Y-76905000D01*
D51*
X152312500Y-56675000D02*
X151225000Y-56675000D01*
D48*
X152646380Y-62925319D02*
X152655000Y-62933939D01*
X158710000Y-64731178D02*
X158564411Y-64585589D01*
X159425000Y-65367356D02*
X159425000Y-65500000D01*
X151975000Y-59750000D02*
X150580000Y-59750000D01*
D49*
X155550000Y-65125000D02*
X155599000Y-65076000D01*
D48*
X150580000Y-59750000D02*
X150375000Y-59955000D01*
%TO.N,+1V1*%
X157370400Y-68162500D02*
X156587500Y-68162500D01*
D52*
X154350000Y-65125000D02*
X154350000Y-64950000D01*
D48*
X150245774Y-67762500D02*
X149712500Y-67762500D01*
X153800000Y-70800000D02*
X154675000Y-70800000D01*
X154675000Y-70800000D02*
X155150000Y-70325000D01*
X158700000Y-69492100D02*
X157370400Y-68162500D01*
X155987500Y-68162500D02*
X156587500Y-68162500D01*
X153150000Y-72000000D02*
X153150000Y-71450000D01*
X151410708Y-70563500D02*
X151149000Y-70301792D01*
X155987500Y-68162500D02*
X155849000Y-68024000D01*
X153150000Y-72680000D02*
X153645000Y-73175000D01*
X152263500Y-70563500D02*
X151410708Y-70563500D01*
X155150000Y-68475000D02*
X155462500Y-68162500D01*
X155849000Y-67326374D02*
X154325000Y-65802374D01*
X154350000Y-65125000D02*
X154350000Y-65660274D01*
X155462500Y-68162500D02*
X155987500Y-68162500D01*
X153150000Y-71450000D02*
X152263500Y-70563500D01*
X155849000Y-68024000D02*
X155849000Y-67326374D01*
X150246774Y-67761500D02*
X150245774Y-67762500D01*
X154350000Y-65660274D02*
X154325000Y-65685274D01*
X149712500Y-67762500D02*
X148587500Y-67762500D01*
X155150000Y-70325000D02*
X155150000Y-68475000D01*
X151149000Y-68663726D02*
X150246774Y-67761500D01*
X153150000Y-72000000D02*
X153150000Y-72680000D01*
X153150000Y-71450000D02*
X153800000Y-70800000D01*
X158700000Y-69890000D02*
X158700000Y-69492100D01*
X157675000Y-62090000D02*
X157100000Y-62090000D01*
X154325000Y-65802374D02*
X154325000Y-65685274D01*
X151149000Y-70301792D02*
X151149000Y-68663726D01*
X148587500Y-67762500D02*
X148375000Y-67550000D01*
%TO.N,/VBUS*%
X150700000Y-61775000D02*
X151725000Y-61775000D01*
X150700000Y-62350000D02*
X150700000Y-61775000D01*
X154575000Y-60825000D02*
X154575000Y-59750000D01*
X151725000Y-61775000D02*
X152075000Y-62125000D01*
X155700000Y-61300000D02*
X155050000Y-61300000D01*
X155050000Y-61300000D02*
X154575000Y-60825000D01*
X157114660Y-61300000D02*
X158929660Y-59485000D01*
X150350000Y-62700000D02*
X150700000Y-62350000D01*
X155700000Y-61300000D02*
X157114660Y-61300000D01*
X158929660Y-59485000D02*
X161075000Y-59485000D01*
%TO.N,/XIN*%
X148600000Y-76700000D02*
X149650000Y-76700000D01*
X151299000Y-75051000D02*
X151299000Y-73966840D01*
X150100000Y-76250000D02*
X151299000Y-75051000D01*
X152350000Y-72915840D02*
X152350000Y-72000000D01*
X149650000Y-76700000D02*
X150100000Y-76250000D01*
X151299000Y-73966840D02*
X152350000Y-72915840D01*
%TO.N,Net-(C14-Pad1)*%
X152825000Y-75075000D02*
X152300000Y-74550000D01*
X153800000Y-75075000D02*
X152825000Y-75075000D01*
X153800000Y-75945000D02*
X153800000Y-75075000D01*
X152300000Y-74550000D02*
X152605000Y-74550000D01*
%TO.N,/VREG_AVDD*%
X158750000Y-63455000D02*
X158129000Y-62834000D01*
X158129000Y-61226000D02*
X158750000Y-60605000D01*
X155950000Y-65125000D02*
X157080000Y-65125000D01*
X158129000Y-62834000D02*
X158129000Y-61226000D01*
X157080000Y-65125000D02*
X158750000Y-63455000D01*
%TO.N,/USB_D+*%
X153300000Y-62965000D02*
X153300000Y-59775000D01*
X153300000Y-59775000D02*
X153275000Y-59750000D01*
%TO.N,/USB_D-*%
X154075000Y-62790000D02*
X154250000Y-62965000D01*
X154075000Y-59900000D02*
X154075000Y-62790000D01*
X153925000Y-59750000D02*
X154075000Y-59900000D01*
%TO.N,/GPIO27*%
X158792500Y-67362500D02*
X156587500Y-67362500D01*
X161075000Y-69645000D02*
X158792500Y-67362500D01*
%TO.N,/GPIO28*%
X156587500Y-66962500D02*
X159012500Y-66962500D01*
X159155000Y-67105000D02*
X161075000Y-67105000D01*
X159012500Y-66962500D02*
X159155000Y-67105000D01*
%TO.N,/GPIO26*%
X157537500Y-67762500D02*
X156587500Y-67762500D01*
X161075000Y-71300000D02*
X157537500Y-67762500D01*
X161075000Y-72185000D02*
X161075000Y-71300000D01*
%TO.N,/GPIO5*%
X148797500Y-68562500D02*
X145175000Y-72185000D01*
X149712500Y-68562500D02*
X148797500Y-68562500D01*
D49*
%TO.N,/GPIO0*%
X146276000Y-60586000D02*
X145175000Y-59485000D01*
X146276000Y-63189178D02*
X146276000Y-60586000D01*
X149249322Y-66162500D02*
X146276000Y-63189178D01*
X149712500Y-66162500D02*
X149249322Y-66162500D01*
D52*
%TO.N,/GPIO7*%
X150512500Y-69362500D02*
X150525000Y-69375000D01*
X149712500Y-69362500D02*
X150512500Y-69362500D01*
D48*
%TO.N,/GPIO6*%
X149712500Y-68962500D02*
X149087500Y-68962500D01*
X149087500Y-68962500D02*
X146475000Y-71575000D01*
X146475000Y-71575000D02*
X146475000Y-73425000D01*
X146475000Y-73425000D02*
X145175000Y-74725000D01*
D52*
%TO.N,/GPIO2*%
X145175000Y-64875000D02*
X145175000Y-64565000D01*
X149045388Y-66849000D02*
X149032583Y-66849000D01*
X146913208Y-66613208D02*
X145175000Y-64875000D01*
X149032583Y-66849000D02*
X148796582Y-66613000D01*
X149158888Y-66962500D02*
X149045388Y-66849000D01*
X149712500Y-66962500D02*
X149158888Y-66962500D01*
X146913418Y-66613000D02*
X146913208Y-66613208D01*
X148796582Y-66613000D02*
X146913418Y-66613000D01*
D49*
%TO.N,/GPIO1*%
X145175000Y-62517578D02*
X145175000Y-62025000D01*
X149712500Y-66562500D02*
X149219922Y-66562500D01*
X149219922Y-66562500D02*
X145175000Y-62517578D01*
D52*
%TO.N,/GPIO3*%
X147058806Y-66964000D02*
X146822806Y-67200000D01*
X148900000Y-67200000D02*
X148887194Y-67200000D01*
X149712500Y-67362500D02*
X149062500Y-67362500D01*
X149062500Y-67362500D02*
X148900000Y-67200000D01*
X148651194Y-66964000D02*
X147058806Y-66964000D01*
X148887194Y-67200000D02*
X148651194Y-66964000D01*
X146822806Y-67200000D02*
X145270000Y-67200000D01*
X145270000Y-67200000D02*
X145175000Y-67105000D01*
D48*
%TO.N,/GPIO4*%
X148612500Y-68162500D02*
X147130000Y-69645000D01*
X149712500Y-68162500D02*
X148612500Y-68162500D01*
X147130000Y-69645000D02*
X145175000Y-69645000D01*
D53*
%TO.N,/VREG_LX*%
X156840000Y-63725000D02*
X157100000Y-63465000D01*
X155271000Y-64464368D02*
X155271000Y-64204000D01*
X155750000Y-63725000D02*
X156840000Y-63725000D01*
X155150000Y-64585368D02*
X155271000Y-64464368D01*
X155271000Y-64204000D02*
X155750000Y-63725000D01*
X155150000Y-65125000D02*
X155150000Y-64585368D01*
X157100000Y-63465000D02*
X157100000Y-63060000D01*
D48*
%TO.N,Net-(U2-USB_DP)*%
X153550000Y-64235000D02*
X153300000Y-63985000D01*
X153550000Y-65125000D02*
X153550000Y-64235000D01*
%TO.N,Net-(U2-USB_DM)*%
X153950000Y-64285000D02*
X154250000Y-63985000D01*
X153950000Y-65125000D02*
X153950000Y-64285000D01*
%TO.N,/XOUT*%
X152750000Y-73350000D02*
X153455000Y-74055000D01*
X153455000Y-74055000D02*
X153800000Y-74055000D01*
X152750000Y-72000000D02*
X152750000Y-73350000D01*
%TO.N,Net-(U2-RUN)*%
X154350000Y-71401000D02*
X154550000Y-71201000D01*
X155124000Y-71201000D02*
X155425000Y-70900000D01*
X154350000Y-72000000D02*
X154350000Y-71401000D01*
X154550000Y-71201000D02*
X155124000Y-71201000D01*
D49*
%TO.N,Net-(U2-QSPI_SS)*%
X150350000Y-65125000D02*
X150350000Y-65557532D01*
X150401000Y-66726000D02*
X150675000Y-67000000D01*
X150350000Y-65557532D02*
X150401000Y-65608532D01*
X150401000Y-65608532D02*
X150401000Y-66726000D01*
%TD*%
%TA.AperFunction,Conductor*%
%TO.N,GND*%
G36*
X147830846Y-71246666D02*
G01*
X147875194Y-71275167D01*
X147953449Y-71353422D01*
X147953465Y-71353437D01*
X147981155Y-71377087D01*
X147996229Y-71385374D01*
X148122960Y-71455044D01*
X148122961Y-71455044D01*
X148122966Y-71455047D01*
X148125128Y-71455602D01*
X148132909Y-71457600D01*
X148189756Y-71490024D01*
X148406237Y-71706505D01*
X148406237Y-71706504D01*
X148479575Y-71573102D01*
X148479579Y-71573093D01*
X148485412Y-71550375D01*
X148489515Y-71543481D01*
X148490252Y-71535493D01*
X148507128Y-71513890D01*
X148521149Y-71490336D01*
X148529428Y-71485346D01*
X148533267Y-71480433D01*
X148552396Y-71471505D01*
X148564586Y-71464160D01*
X148569550Y-71462424D01*
X148598282Y-71455047D01*
X148611629Y-71447709D01*
X148621376Y-71444301D01*
X148646364Y-71443030D01*
X148670791Y-71437642D01*
X148680651Y-71441287D01*
X148691155Y-71440753D01*
X148712863Y-71453193D01*
X148736327Y-71461867D01*
X148742652Y-71470265D01*
X148751776Y-71475494D01*
X148763310Y-71497693D01*
X148778362Y-71517678D01*
X148782510Y-71534645D01*
X148783990Y-71537494D01*
X148783848Y-71539025D01*
X148785120Y-71544056D01*
X148840639Y-71684843D01*
X148932077Y-71805422D01*
X149052656Y-71896860D01*
X149052657Y-71896860D01*
X149052658Y-71896861D01*
X149193436Y-71952377D01*
X149281898Y-71963000D01*
X149625500Y-71963000D01*
X149634185Y-71965550D01*
X149643147Y-71964262D01*
X149667187Y-71975240D01*
X149692539Y-71982685D01*
X149698466Y-71989525D01*
X149706703Y-71993287D01*
X149720992Y-72015521D01*
X149738294Y-72035489D01*
X149740581Y-72046003D01*
X149744477Y-72052065D01*
X149749500Y-72087000D01*
X149749500Y-72299086D01*
X149729815Y-72366125D01*
X149688622Y-72405818D01*
X149579622Y-72470281D01*
X149579616Y-72470285D01*
X149465285Y-72584616D01*
X149465278Y-72584625D01*
X149382968Y-72723804D01*
X149382966Y-72723809D01*
X149337855Y-72879081D01*
X149337854Y-72879087D01*
X149336209Y-72899999D01*
X149336210Y-72900000D01*
X149991000Y-72900000D01*
X150058039Y-72919685D01*
X150103794Y-72972489D01*
X150115000Y-73024000D01*
X150115000Y-73150000D01*
X150170500Y-73150000D01*
X150237539Y-73169685D01*
X150283294Y-73222489D01*
X150294500Y-73274000D01*
X150294500Y-73384697D01*
X150297356Y-73420991D01*
X150297357Y-73420997D01*
X150342503Y-73576389D01*
X150342505Y-73576393D01*
X150342506Y-73576395D01*
X150347732Y-73585233D01*
X150365000Y-73648352D01*
X150365000Y-74023638D01*
X150350000Y-74074721D01*
X150350000Y-74426000D01*
X150330315Y-74493039D01*
X150277511Y-74538794D01*
X150226000Y-74550000D01*
X150100000Y-74550000D01*
X150100000Y-74676000D01*
X150080315Y-74743039D01*
X150027511Y-74788794D01*
X149976000Y-74800000D01*
X148900001Y-74800000D01*
X148900001Y-74860750D01*
X148880316Y-74927789D01*
X148860172Y-74951806D01*
X148850000Y-74961208D01*
X148850000Y-75616000D01*
X148830315Y-75683039D01*
X148777511Y-75728794D01*
X148726000Y-75740000D01*
X148600000Y-75740000D01*
X148600000Y-75795500D01*
X148580315Y-75862539D01*
X148527511Y-75908294D01*
X148476000Y-75919500D01*
X148365302Y-75919500D01*
X148329008Y-75922356D01*
X148329002Y-75922357D01*
X148173610Y-75967503D01*
X148173605Y-75967506D01*
X148164766Y-75972732D01*
X148101648Y-75990000D01*
X147795496Y-75990000D01*
X147837968Y-76136194D01*
X147849911Y-76156389D01*
X147867092Y-76224113D01*
X147849911Y-76282628D01*
X147837506Y-76303604D01*
X147837504Y-76303609D01*
X147792357Y-76459002D01*
X147792356Y-76459008D01*
X147789500Y-76495302D01*
X147789500Y-76904697D01*
X147792356Y-76940991D01*
X147792357Y-76940997D01*
X147837504Y-77096390D01*
X147837505Y-77096393D01*
X147837506Y-77096395D01*
X147846959Y-77112379D01*
X147864142Y-77180103D01*
X147841982Y-77246366D01*
X147787516Y-77290129D01*
X147740227Y-77299500D01*
X143999500Y-77299500D01*
X143932461Y-77279815D01*
X143886706Y-77227011D01*
X143875500Y-77175500D01*
X143875500Y-75615633D01*
X143895185Y-75548594D01*
X143947989Y-75502839D01*
X144017147Y-75492895D01*
X144080703Y-75521920D01*
X144099819Y-75542748D01*
X144144896Y-75604792D01*
X144295213Y-75755109D01*
X144467179Y-75880048D01*
X144467181Y-75880049D01*
X144467184Y-75880051D01*
X144656588Y-75976557D01*
X144858757Y-76042246D01*
X145068713Y-76075500D01*
X145068714Y-76075500D01*
X145281286Y-76075500D01*
X145281287Y-76075500D01*
X145491243Y-76042246D01*
X145693412Y-75976557D01*
X145882816Y-75880051D01*
X145969138Y-75817335D01*
X146054786Y-75755109D01*
X146054788Y-75755106D01*
X146054792Y-75755104D01*
X146205104Y-75604792D01*
X146288505Y-75490000D01*
X147795496Y-75490000D01*
X148350000Y-75490000D01*
X148350000Y-74961210D01*
X148349999Y-74961209D01*
X148329087Y-74962854D01*
X148329081Y-74962855D01*
X148173809Y-75007966D01*
X148173804Y-75007968D01*
X148034625Y-75090278D01*
X148034616Y-75090285D01*
X147920285Y-75204616D01*
X147920278Y-75204625D01*
X147837968Y-75343804D01*
X147795496Y-75490000D01*
X146288505Y-75490000D01*
X146291732Y-75485558D01*
X146323362Y-75442023D01*
X146323363Y-75442022D01*
X146325257Y-75439413D01*
X146330051Y-75432816D01*
X146426557Y-75243412D01*
X146492246Y-75041243D01*
X146525500Y-74831287D01*
X146525500Y-74618713D01*
X146492246Y-74408757D01*
X146478506Y-74366473D01*
X146476512Y-74296635D01*
X146508755Y-74240478D01*
X146599221Y-74150013D01*
X148900000Y-74150013D01*
X148900000Y-74300000D01*
X149850000Y-74300000D01*
X149850000Y-73400000D01*
X149336210Y-73400000D01*
X149338352Y-73427232D01*
X149336582Y-73427371D01*
X149330149Y-73488345D01*
X149286416Y-73542835D01*
X149280591Y-73546658D01*
X149181659Y-73607680D01*
X149181655Y-73607683D01*
X149057684Y-73731654D01*
X148965643Y-73880875D01*
X148965641Y-73880880D01*
X148910494Y-74047302D01*
X148910493Y-74047309D01*
X148900000Y-74150013D01*
X146599221Y-74150013D01*
X146955520Y-73793716D01*
X147034577Y-73656784D01*
X147075501Y-73504057D01*
X147075501Y-73345942D01*
X147075501Y-73338347D01*
X147075500Y-73338329D01*
X147075500Y-72130489D01*
X147095185Y-72063450D01*
X147147989Y-72017695D01*
X147217147Y-72007751D01*
X147280034Y-72036201D01*
X147302624Y-72055496D01*
X147302635Y-72055503D01*
X147444326Y-72133399D01*
X147444336Y-72133402D01*
X147600947Y-72173613D01*
X147600955Y-72173614D01*
X147762653Y-72173614D01*
X147762658Y-72173613D01*
X147919270Y-72133402D01*
X147919278Y-72133399D01*
X148052682Y-72060059D01*
X148052683Y-72060059D01*
X147571493Y-71578869D01*
X147567155Y-71570924D01*
X147559907Y-71565499D01*
X147550670Y-71540736D01*
X147538008Y-71517546D01*
X147538653Y-71508517D01*
X147535490Y-71500035D01*
X147541106Y-71474215D01*
X147542992Y-71447854D01*
X147548811Y-71438799D01*
X147550342Y-71431762D01*
X147571492Y-71403507D01*
X147699831Y-71275167D01*
X147761154Y-71241682D01*
X147830846Y-71246666D01*
G37*
%TD.AperFunction*%
%TA.AperFunction,Conductor*%
G36*
X159541442Y-70619685D02*
G01*
X159562084Y-70636319D01*
X160050252Y-71124487D01*
X160083737Y-71185810D01*
X160078753Y-71255502D01*
X160050262Y-71299839D01*
X160044902Y-71305199D01*
X160044892Y-71305211D01*
X159919951Y-71477179D01*
X159823444Y-71666585D01*
X159757753Y-71868760D01*
X159726917Y-72063450D01*
X159724500Y-72078713D01*
X159724500Y-72291287D01*
X159731734Y-72336962D01*
X159756746Y-72494883D01*
X159757754Y-72501243D01*
X159809286Y-72659842D01*
X159823444Y-72703414D01*
X159919951Y-72892820D01*
X160044890Y-73064786D01*
X160158430Y-73178326D01*
X160191915Y-73239649D01*
X160186931Y-73309341D01*
X160145059Y-73365274D01*
X160114083Y-73382189D01*
X159982669Y-73431203D01*
X159982664Y-73431206D01*
X159867455Y-73517452D01*
X159867452Y-73517455D01*
X159781206Y-73632664D01*
X159781202Y-73632671D01*
X159730908Y-73767517D01*
X159724501Y-73827116D01*
X159724500Y-73827135D01*
X159724500Y-75622870D01*
X159724501Y-75622876D01*
X159730908Y-75682483D01*
X159781202Y-75817328D01*
X159781206Y-75817335D01*
X159867452Y-75932544D01*
X159867455Y-75932547D01*
X159982664Y-76018793D01*
X159982671Y-76018797D01*
X160117517Y-76069091D01*
X160117516Y-76069091D01*
X160124444Y-76069835D01*
X160177127Y-76075500D01*
X161972872Y-76075499D01*
X162032483Y-76069091D01*
X162167331Y-76018796D01*
X162176186Y-76012166D01*
X162241649Y-75987747D01*
X162309923Y-76002596D01*
X162359330Y-76052000D01*
X162374500Y-76111431D01*
X162374500Y-77175500D01*
X162354815Y-77242539D01*
X162302011Y-77288294D01*
X162250500Y-77299500D01*
X154727676Y-77299500D01*
X154660637Y-77279815D01*
X154614882Y-77227011D01*
X154604938Y-77157853D01*
X154605319Y-77156085D01*
X154604504Y-77155000D01*
X153924000Y-77155000D01*
X153915314Y-77152449D01*
X153906353Y-77153738D01*
X153882312Y-77142759D01*
X153856961Y-77135315D01*
X153851033Y-77128474D01*
X153842797Y-77124713D01*
X153828507Y-77102478D01*
X153811206Y-77082511D01*
X153808918Y-77071996D01*
X153805023Y-77065935D01*
X153800000Y-77031000D01*
X153800000Y-76849500D01*
X153819685Y-76782461D01*
X153872489Y-76736706D01*
X153924000Y-76725500D01*
X154034682Y-76725500D01*
X154034690Y-76725500D01*
X154070993Y-76722643D01*
X154070995Y-76722642D01*
X154070997Y-76722642D01*
X154226389Y-76677496D01*
X154226389Y-76677495D01*
X154226395Y-76677494D01*
X154235233Y-76672267D01*
X154298352Y-76655000D01*
X154604504Y-76655000D01*
X154562031Y-76508803D01*
X154550090Y-76488613D01*
X154532906Y-76420889D01*
X154550089Y-76362369D01*
X154562494Y-76341395D01*
X154607643Y-76185993D01*
X154610500Y-76149690D01*
X154610500Y-75740310D01*
X154607643Y-75704007D01*
X154564476Y-75555427D01*
X154564675Y-75485558D01*
X154570790Y-75471993D01*
X154569771Y-75471552D01*
X154572866Y-75464397D01*
X154572869Y-75464393D01*
X154617665Y-75310204D01*
X154620500Y-75274181D01*
X154620499Y-74875820D01*
X154617665Y-74839796D01*
X154572869Y-74685607D01*
X154538869Y-74628117D01*
X154521688Y-74560398D01*
X154538869Y-74501882D01*
X154572869Y-74444393D01*
X154617665Y-74290204D01*
X154620500Y-74254181D01*
X154620499Y-74108997D01*
X154640183Y-74041960D01*
X154692987Y-73996205D01*
X154744499Y-73984999D01*
X154809624Y-73984999D01*
X154809649Y-73984998D01*
X154845914Y-73982144D01*
X155002905Y-73936535D01*
X155072095Y-73936534D01*
X155220000Y-73979503D01*
X155220000Y-73299000D01*
X155222550Y-73290314D01*
X155221262Y-73281353D01*
X155232240Y-73257312D01*
X155239685Y-73231961D01*
X155246525Y-73226033D01*
X155250287Y-73217797D01*
X155272521Y-73203507D01*
X155292489Y-73186206D01*
X155303003Y-73183918D01*
X155309065Y-73180023D01*
X155344000Y-73175000D01*
X155525500Y-73175000D01*
X155592539Y-73194685D01*
X155638294Y-73247489D01*
X155649500Y-73299000D01*
X155649500Y-73409697D01*
X155652356Y-73445991D01*
X155652357Y-73445997D01*
X155697503Y-73601389D01*
X155697505Y-73601393D01*
X155697506Y-73601395D01*
X155702732Y-73610233D01*
X155720000Y-73673352D01*
X155720000Y-73979503D01*
X155866194Y-73937032D01*
X155886384Y-73925091D01*
X155954108Y-73907906D01*
X156012629Y-73925089D01*
X156033605Y-73937494D01*
X156074587Y-73949400D01*
X156189002Y-73982642D01*
X156189005Y-73982642D01*
X156189007Y-73982643D01*
X156225310Y-73985500D01*
X156225318Y-73985500D01*
X156634682Y-73985500D01*
X156634690Y-73985500D01*
X156670993Y-73982643D01*
X156670995Y-73982642D01*
X156670997Y-73982642D01*
X156711975Y-73970736D01*
X156826395Y-73937494D01*
X156965687Y-73855117D01*
X157008984Y-73811820D01*
X157070307Y-73778334D01*
X157096666Y-73775500D01*
X157495065Y-73775500D01*
X157562104Y-73795185D01*
X157563909Y-73796366D01*
X157620821Y-73834394D01*
X157620823Y-73834395D01*
X157620827Y-73834397D01*
X157733049Y-73880880D01*
X157766503Y-73894737D01*
X157884826Y-73918273D01*
X157921153Y-73925499D01*
X157921156Y-73925500D01*
X157921158Y-73925500D01*
X158078844Y-73925500D01*
X158078845Y-73925499D01*
X158233497Y-73894737D01*
X158353069Y-73845209D01*
X158379172Y-73834397D01*
X158379172Y-73834396D01*
X158379179Y-73834394D01*
X158510289Y-73746789D01*
X158621789Y-73635289D01*
X158709394Y-73504179D01*
X158769737Y-73358497D01*
X158800500Y-73203842D01*
X158800500Y-73046158D01*
X158800500Y-73046155D01*
X158800499Y-73046153D01*
X158791865Y-73002748D01*
X158769737Y-72891503D01*
X158761601Y-72871861D01*
X158709397Y-72745827D01*
X158709390Y-72745814D01*
X158621789Y-72614711D01*
X158621786Y-72614707D01*
X158510292Y-72503213D01*
X158510288Y-72503210D01*
X158379185Y-72415609D01*
X158379172Y-72415602D01*
X158233501Y-72355264D01*
X158233489Y-72355261D01*
X158078845Y-72324500D01*
X158078842Y-72324500D01*
X157921158Y-72324500D01*
X157921155Y-72324500D01*
X157766510Y-72355261D01*
X157766498Y-72355264D01*
X157620827Y-72415602D01*
X157620814Y-72415609D01*
X157489711Y-72503210D01*
X157489707Y-72503213D01*
X157454742Y-72538180D01*
X157393420Y-72571666D01*
X157367060Y-72574500D01*
X157096666Y-72574500D01*
X157029627Y-72554815D01*
X157008984Y-72538180D01*
X156965692Y-72494887D01*
X156965684Y-72494881D01*
X156826393Y-72412505D01*
X156826390Y-72412504D01*
X156670997Y-72367357D01*
X156670992Y-72367356D01*
X156664769Y-72366867D01*
X156660924Y-72365401D01*
X156656853Y-72365987D01*
X156628555Y-72353063D01*
X156599481Y-72341982D01*
X156597039Y-72338671D01*
X156593297Y-72336962D01*
X156576476Y-72310789D01*
X156558011Y-72285750D01*
X156557110Y-72280654D01*
X156555523Y-72278184D01*
X156550500Y-72243249D01*
X156550500Y-72087000D01*
X156570185Y-72019961D01*
X156622989Y-71974206D01*
X156674500Y-71963000D01*
X157018097Y-71963000D01*
X157018102Y-71963000D01*
X157106564Y-71952377D01*
X157247342Y-71896861D01*
X157367922Y-71805422D01*
X157455058Y-71690516D01*
X157511249Y-71648994D01*
X157514434Y-71648557D01*
X157525000Y-71638790D01*
X157525000Y-71459765D01*
X157525500Y-71455602D01*
X157525500Y-71269398D01*
X157525000Y-71265234D01*
X157525000Y-71067183D01*
X157525471Y-71059310D01*
X157525279Y-71059299D01*
X157525500Y-71055607D01*
X157525500Y-70984000D01*
X157545185Y-70916961D01*
X157597989Y-70871206D01*
X157649500Y-70860000D01*
X157901000Y-70860000D01*
X157968039Y-70879685D01*
X158013794Y-70932489D01*
X158025000Y-70984000D01*
X158025000Y-71638789D01*
X158045910Y-71637145D01*
X158201192Y-71592032D01*
X158203206Y-71591161D01*
X158204922Y-71590949D01*
X158208688Y-71589855D01*
X158208864Y-71590462D01*
X158272549Y-71582596D01*
X158287058Y-71585882D01*
X158429086Y-71627144D01*
X158450000Y-71628789D01*
X158950000Y-71628789D01*
X158970910Y-71627145D01*
X159126195Y-71582031D01*
X159265374Y-71499721D01*
X159265383Y-71499714D01*
X159379714Y-71385383D01*
X159379721Y-71385374D01*
X159462031Y-71246195D01*
X159504504Y-71100000D01*
X158950000Y-71100000D01*
X158950000Y-71628789D01*
X158450000Y-71628789D01*
X158450000Y-70974000D01*
X158469685Y-70906961D01*
X158522489Y-70861206D01*
X158574000Y-70850000D01*
X158700000Y-70850000D01*
X158700000Y-70794500D01*
X158719685Y-70727461D01*
X158772489Y-70681706D01*
X158824000Y-70670500D01*
X158934682Y-70670500D01*
X158934690Y-70670500D01*
X158970993Y-70667643D01*
X158970995Y-70667642D01*
X158970997Y-70667642D01*
X159126389Y-70622496D01*
X159126389Y-70622495D01*
X159126395Y-70622494D01*
X159135233Y-70617267D01*
X159198352Y-70600000D01*
X159474403Y-70600000D01*
X159541442Y-70619685D01*
G37*
%TD.AperFunction*%
%TA.AperFunction,Conductor*%
G36*
X153368434Y-66052376D02*
G01*
X153368436Y-66052377D01*
X153438353Y-66060773D01*
X153456897Y-66063000D01*
X153456898Y-66063000D01*
X153643100Y-66063000D01*
X153643102Y-66063000D01*
X153691811Y-66057150D01*
X153760717Y-66068700D01*
X153812442Y-66115671D01*
X153813949Y-66118209D01*
X153844480Y-66171090D01*
X153844482Y-66171092D01*
X153963349Y-66289959D01*
X153963355Y-66289964D01*
X154107348Y-66433957D01*
X154134227Y-66474183D01*
X154145244Y-66500779D01*
X154145245Y-66500782D01*
X154213693Y-66603221D01*
X154213699Y-66603229D01*
X154300818Y-66690348D01*
X154300822Y-66690351D01*
X154403262Y-66758800D01*
X154403266Y-66758802D01*
X154403269Y-66758804D01*
X154429864Y-66769820D01*
X154470090Y-66796699D01*
X155145355Y-67471964D01*
X155178840Y-67533287D01*
X155173856Y-67602979D01*
X155131984Y-67658912D01*
X155119674Y-67667032D01*
X155093787Y-67681977D01*
X155093782Y-67681981D01*
X154774217Y-68001546D01*
X154774214Y-68001548D01*
X154774215Y-68001549D01*
X154669478Y-68106286D01*
X154652838Y-68135109D01*
X154625070Y-68183206D01*
X154619361Y-68193094D01*
X154619359Y-68193096D01*
X154590425Y-68243209D01*
X154590424Y-68243210D01*
X154584716Y-68264514D01*
X154549499Y-68395943D01*
X154549499Y-68395945D01*
X154549499Y-68564046D01*
X154549500Y-68564059D01*
X154549500Y-70024903D01*
X154540855Y-70054343D01*
X154534332Y-70084330D01*
X154530577Y-70089345D01*
X154529815Y-70091942D01*
X154513181Y-70112584D01*
X154462584Y-70163181D01*
X154401261Y-70196666D01*
X154374903Y-70199500D01*
X153886669Y-70199500D01*
X153886653Y-70199499D01*
X153879057Y-70199499D01*
X153720943Y-70199499D01*
X153641010Y-70220917D01*
X153568216Y-70240422D01*
X153540196Y-70256600D01*
X153540195Y-70256599D01*
X153431287Y-70319477D01*
X153431282Y-70319481D01*
X153319480Y-70431283D01*
X153319480Y-70431284D01*
X153319478Y-70431286D01*
X153264307Y-70486456D01*
X153237680Y-70513084D01*
X153176356Y-70546568D01*
X153106665Y-70541584D01*
X153062318Y-70513083D01*
X152751090Y-70201855D01*
X152751088Y-70201852D01*
X152632217Y-70082981D01*
X152632209Y-70082975D01*
X152537229Y-70028139D01*
X152537227Y-70028138D01*
X152495290Y-70003925D01*
X152495289Y-70003924D01*
X152482763Y-70000567D01*
X152342557Y-69962999D01*
X152184443Y-69962999D01*
X152176847Y-69962999D01*
X152176831Y-69963000D01*
X151873500Y-69963000D01*
X151806461Y-69943315D01*
X151760706Y-69890511D01*
X151749500Y-69839000D01*
X151749500Y-68584669D01*
X151749208Y-68583577D01*
X151708577Y-68431941D01*
X151668774Y-68363001D01*
X151668774Y-68363000D01*
X151629522Y-68295013D01*
X151629521Y-68295012D01*
X151629520Y-68295010D01*
X151517716Y-68183206D01*
X151517715Y-68183205D01*
X151513385Y-68178875D01*
X151513374Y-68178865D01*
X151154858Y-67820349D01*
X151121373Y-67759026D01*
X151126357Y-67689334D01*
X151168229Y-67633401D01*
X151173614Y-67629589D01*
X151185289Y-67621789D01*
X151296789Y-67510289D01*
X151384394Y-67379179D01*
X151444737Y-67233497D01*
X151459891Y-67157313D01*
X151492274Y-67095406D01*
X151552989Y-67060831D01*
X151557250Y-67059903D01*
X151633497Y-67044737D01*
X151779179Y-66984394D01*
X151779185Y-66984390D01*
X151910875Y-66896398D01*
X151928921Y-66890747D01*
X151944831Y-66880523D01*
X151975792Y-66876071D01*
X151977553Y-66875520D01*
X151979766Y-66875500D01*
X152088331Y-66875500D01*
X152088347Y-66875501D01*
X152095943Y-66875501D01*
X152254054Y-66875501D01*
X152254057Y-66875501D01*
X152406785Y-66834577D01*
X152486147Y-66788757D01*
X152543716Y-66755520D01*
X152655520Y-66643716D01*
X152655520Y-66643714D01*
X152665724Y-66633511D01*
X152665727Y-66633506D01*
X153204978Y-66094256D01*
X153266299Y-66060773D01*
X153277862Y-66058825D01*
X153331564Y-66052377D01*
X153331565Y-66052376D01*
X153335216Y-66051938D01*
X153364785Y-66051938D01*
X153368434Y-66052376D01*
G37*
%TD.AperFunction*%
%TA.AperFunction,Conductor*%
G36*
X147497539Y-67569685D02*
G01*
X147543294Y-67622489D01*
X147554500Y-67674000D01*
X147554500Y-67784697D01*
X147557356Y-67820991D01*
X147557357Y-67820997D01*
X147602503Y-67976389D01*
X147602505Y-67976393D01*
X147602506Y-67976395D01*
X147607732Y-67985233D01*
X147625000Y-68048352D01*
X147625000Y-68249402D01*
X147605315Y-68316441D01*
X147588681Y-68337083D01*
X146917584Y-69008181D01*
X146856261Y-69041666D01*
X146829903Y-69044500D01*
X146460719Y-69044500D01*
X146393680Y-69024815D01*
X146350235Y-68976795D01*
X146330052Y-68937185D01*
X146330051Y-68937184D01*
X146205109Y-68765213D01*
X146054786Y-68614890D01*
X145882820Y-68489951D01*
X145882115Y-68489591D01*
X145874054Y-68485485D01*
X145823259Y-68437512D01*
X145806463Y-68369692D01*
X145828999Y-68303556D01*
X145874054Y-68264515D01*
X145882816Y-68260051D01*
X145924572Y-68229714D01*
X146054786Y-68135109D01*
X146054788Y-68135106D01*
X146054792Y-68135104D01*
X146205104Y-67984792D01*
X146320026Y-67826614D01*
X146324358Y-67823273D01*
X146326631Y-67818297D01*
X146351727Y-67802168D01*
X146375355Y-67783949D01*
X146382028Y-67782695D01*
X146385409Y-67780523D01*
X146420344Y-67775500D01*
X146491559Y-67775500D01*
X146558598Y-67795185D01*
X146604353Y-67847989D01*
X146610635Y-67864905D01*
X146642966Y-67976190D01*
X146642968Y-67976195D01*
X146725278Y-68115374D01*
X146725285Y-68115383D01*
X146839616Y-68229714D01*
X146839625Y-68229721D01*
X146978804Y-68312031D01*
X147125000Y-68354504D01*
X147125000Y-67760929D01*
X147133844Y-67730807D01*
X147140891Y-67700196D01*
X147143828Y-67696806D01*
X147144685Y-67693890D01*
X147162381Y-67672198D01*
X147171711Y-67663089D01*
X147176171Y-67660515D01*
X147250924Y-67585761D01*
X147251429Y-67585269D01*
X147281689Y-67569215D01*
X147311690Y-67552834D01*
X147312791Y-67552715D01*
X147313151Y-67552525D01*
X147313945Y-67552591D01*
X147338048Y-67550000D01*
X147430500Y-67550000D01*
X147497539Y-67569685D01*
G37*
%TD.AperFunction*%
%TA.AperFunction,Conductor*%
G36*
X159765703Y-63422834D02*
G01*
X159772181Y-63428866D01*
X159963119Y-63619804D01*
X159996604Y-63681127D01*
X159991620Y-63750819D01*
X159975757Y-63780370D01*
X159919948Y-63857184D01*
X159823444Y-64046585D01*
X159757753Y-64248760D01*
X159744899Y-64329919D01*
X159724500Y-64458713D01*
X159724500Y-64671287D01*
X159734534Y-64734644D01*
X159757598Y-64880262D01*
X159757754Y-64881243D01*
X159799120Y-65008555D01*
X159823444Y-65083414D01*
X159919951Y-65272820D01*
X160044890Y-65444786D01*
X160195213Y-65595109D01*
X160367182Y-65720050D01*
X160375946Y-65724516D01*
X160426742Y-65772491D01*
X160443536Y-65840312D01*
X160420998Y-65906447D01*
X160375946Y-65945484D01*
X160367182Y-65949949D01*
X160195213Y-66074890D01*
X160044890Y-66225213D01*
X159919948Y-66397184D01*
X159919947Y-66397185D01*
X159899765Y-66436795D01*
X159851791Y-66487591D01*
X159789281Y-66504500D01*
X159452657Y-66504500D01*
X159437038Y-66500288D01*
X159423035Y-66500910D01*
X159402165Y-66490883D01*
X159390312Y-66487687D01*
X159382211Y-66482975D01*
X159381216Y-66481980D01*
X159284634Y-66426219D01*
X159244285Y-66402923D01*
X159244284Y-66402922D01*
X159244283Y-66402922D01*
X159188381Y-66387943D01*
X159091557Y-66361999D01*
X158933443Y-66361999D01*
X158925847Y-66361999D01*
X158925831Y-66362000D01*
X158834000Y-66362000D01*
X158766961Y-66342315D01*
X158721206Y-66289511D01*
X158710000Y-66238000D01*
X158710000Y-66199000D01*
X158729685Y-66131961D01*
X158782489Y-66086206D01*
X158834000Y-66075000D01*
X159488790Y-66075000D01*
X159487145Y-66054089D01*
X159442031Y-65898804D01*
X159359721Y-65759625D01*
X159359714Y-65759616D01*
X159245383Y-65645285D01*
X159245374Y-65645278D01*
X159106195Y-65562968D01*
X159106189Y-65562966D01*
X158998840Y-65531778D01*
X158939954Y-65494172D01*
X158910748Y-65430699D01*
X158920494Y-65361513D01*
X158966098Y-65308578D01*
X158973699Y-65304039D01*
X158995915Y-65291825D01*
X158779435Y-65075345D01*
X158747011Y-65018498D01*
X158744459Y-65008560D01*
X158744458Y-65008555D01*
X158666498Y-64866744D01*
X158642848Y-64839054D01*
X158642833Y-64839038D01*
X158564578Y-64760783D01*
X158560239Y-64752837D01*
X158552992Y-64747412D01*
X158543757Y-64722652D01*
X158531093Y-64699460D01*
X158531738Y-64690430D01*
X158528575Y-64681948D01*
X158534191Y-64656127D01*
X158536077Y-64629768D01*
X158541895Y-64620713D01*
X158543427Y-64613675D01*
X158564578Y-64585420D01*
X158692918Y-64457081D01*
X158754241Y-64423597D01*
X158823933Y-64428581D01*
X158868280Y-64457082D01*
X159349470Y-64938272D01*
X159349470Y-64938271D01*
X159422810Y-64804867D01*
X159422813Y-64804859D01*
X159463024Y-64648247D01*
X159463025Y-64648242D01*
X159463025Y-64486544D01*
X159463024Y-64486536D01*
X159422813Y-64329925D01*
X159422811Y-64329919D01*
X159349917Y-64197325D01*
X159334870Y-64129094D01*
X159359100Y-64063560D01*
X159370891Y-64049912D01*
X159430117Y-63990687D01*
X159512494Y-63851395D01*
X159557643Y-63695993D01*
X159560500Y-63659690D01*
X159560500Y-63516547D01*
X159580185Y-63449508D01*
X159632989Y-63403753D01*
X159702147Y-63393809D01*
X159765703Y-63422834D01*
G37*
%TD.AperFunction*%
%TA.AperFunction,Conductor*%
G36*
X162190269Y-62786716D02*
G01*
X162240771Y-62782742D01*
X162309148Y-62797106D01*
X162358905Y-62846157D01*
X162374500Y-62906360D01*
X162374500Y-63674366D01*
X162354815Y-63741405D01*
X162302011Y-63787160D01*
X162232853Y-63797104D01*
X162169297Y-63768079D01*
X162150182Y-63747251D01*
X162105109Y-63685214D01*
X162105105Y-63685209D01*
X161954786Y-63534890D01*
X161782817Y-63409949D01*
X161773504Y-63405204D01*
X161722707Y-63357230D01*
X161705912Y-63289409D01*
X161728449Y-63223274D01*
X161773507Y-63184232D01*
X161782555Y-63179622D01*
X161836716Y-63140270D01*
X161836717Y-63140270D01*
X161204408Y-62507962D01*
X161267993Y-62490925D01*
X161382007Y-62425099D01*
X161475099Y-62332007D01*
X161540925Y-62217993D01*
X161557962Y-62154408D01*
X162190269Y-62786716D01*
G37*
%TD.AperFunction*%
%TA.AperFunction,Conductor*%
G36*
X148668039Y-61769685D02*
G01*
X148713794Y-61822489D01*
X148725000Y-61874000D01*
X148725000Y-62550000D01*
X148988000Y-62550000D01*
X148996685Y-62552550D01*
X149005647Y-62551262D01*
X149029687Y-62562240D01*
X149055039Y-62569685D01*
X149060966Y-62576525D01*
X149069203Y-62580287D01*
X149083492Y-62602521D01*
X149100794Y-62622489D01*
X149103081Y-62633003D01*
X149106977Y-62639065D01*
X149112000Y-62674000D01*
X149112000Y-62725500D01*
X149092315Y-62792539D01*
X149039511Y-62838294D01*
X148988000Y-62849500D01*
X148575098Y-62849500D01*
X148508059Y-62829815D01*
X148487417Y-62813181D01*
X148261319Y-62587083D01*
X148227834Y-62525760D01*
X148225000Y-62499402D01*
X148225000Y-61874000D01*
X148244685Y-61806961D01*
X148297489Y-61761206D01*
X148349000Y-61750000D01*
X148601000Y-61750000D01*
X148668039Y-61769685D01*
G37*
%TD.AperFunction*%
%TA.AperFunction,Conductor*%
G36*
X159803883Y-60089787D02*
G01*
X159819088Y-60089136D01*
X159836726Y-60099431D01*
X159856320Y-60105185D01*
X159867216Y-60117228D01*
X159879430Y-60124358D01*
X159899765Y-60153205D01*
X159919947Y-60192814D01*
X159919948Y-60192815D01*
X160044890Y-60364786D01*
X160195213Y-60515109D01*
X160367179Y-60640048D01*
X160367181Y-60640049D01*
X160367184Y-60640051D01*
X160376493Y-60644794D01*
X160427290Y-60692766D01*
X160444087Y-60760587D01*
X160421552Y-60826722D01*
X160376505Y-60865760D01*
X160367446Y-60870376D01*
X160367440Y-60870380D01*
X160313282Y-60909727D01*
X160313282Y-60909728D01*
X160945591Y-61542037D01*
X160882007Y-61559075D01*
X160767993Y-61624901D01*
X160674901Y-61717993D01*
X160609075Y-61832007D01*
X160592037Y-61895591D01*
X159959728Y-61263282D01*
X159959727Y-61263282D01*
X159920380Y-61317439D01*
X159823904Y-61506782D01*
X159818911Y-61522151D01*
X159817358Y-61524421D01*
X159817162Y-61527167D01*
X159797752Y-61553093D01*
X159779474Y-61579826D01*
X159776938Y-61580897D01*
X159775290Y-61583100D01*
X159744949Y-61594416D01*
X159715115Y-61607025D01*
X159712403Y-61606555D01*
X159709826Y-61607517D01*
X159678179Y-61600632D01*
X159646269Y-61595110D01*
X159643420Y-61593071D01*
X159641553Y-61592665D01*
X159613299Y-61571514D01*
X159606818Y-61565033D01*
X159573333Y-61503710D01*
X159570499Y-61477352D01*
X159570499Y-61425831D01*
X159570498Y-61425806D01*
X159567665Y-61389799D01*
X159567665Y-61389796D01*
X159522869Y-61235607D01*
X159488869Y-61178117D01*
X159471688Y-61110398D01*
X159488869Y-61051882D01*
X159522869Y-60994393D01*
X159528649Y-60974500D01*
X159567664Y-60840208D01*
X159567665Y-60840202D01*
X159568482Y-60829818D01*
X159570500Y-60804181D01*
X159570499Y-60405820D01*
X159567665Y-60369796D01*
X159531145Y-60244093D01*
X159531345Y-60174225D01*
X159569287Y-60115555D01*
X159632926Y-60086712D01*
X159650222Y-60085500D01*
X159789281Y-60085500D01*
X159803883Y-60089787D01*
G37*
%TD.AperFunction*%
%TA.AperFunction,Conductor*%
G36*
X162336920Y-60286708D02*
G01*
X162371277Y-60347547D01*
X162374500Y-60375633D01*
X162374500Y-61143639D01*
X162354815Y-61210678D01*
X162302011Y-61256433D01*
X162240771Y-61267257D01*
X162190269Y-61263282D01*
X161557962Y-61895590D01*
X161540925Y-61832007D01*
X161475099Y-61717993D01*
X161382007Y-61624901D01*
X161267993Y-61559075D01*
X161204409Y-61542037D01*
X161836716Y-60909728D01*
X161782547Y-60870373D01*
X161782547Y-60870372D01*
X161773500Y-60865763D01*
X161722706Y-60817788D01*
X161705912Y-60749966D01*
X161728451Y-60683832D01*
X161773508Y-60644793D01*
X161782816Y-60640051D01*
X161869143Y-60577331D01*
X161954786Y-60515109D01*
X161954788Y-60515106D01*
X161954792Y-60515104D01*
X162105104Y-60364792D01*
X162150181Y-60302747D01*
X162205511Y-60260082D01*
X162275124Y-60254103D01*
X162336920Y-60286708D01*
G37*
%TD.AperFunction*%
%TA.AperFunction,Conductor*%
G36*
X162317539Y-55695185D02*
G01*
X162363294Y-55747989D01*
X162374500Y-55799500D01*
X162374500Y-58594366D01*
X162354815Y-58661405D01*
X162302011Y-58707160D01*
X162232853Y-58717104D01*
X162169297Y-58688079D01*
X162150182Y-58667251D01*
X162105109Y-58605214D01*
X162105105Y-58605209D01*
X161954786Y-58454890D01*
X161782820Y-58329951D01*
X161593414Y-58233444D01*
X161593413Y-58233443D01*
X161593412Y-58233443D01*
X161391243Y-58167754D01*
X161391241Y-58167753D01*
X161391240Y-58167753D01*
X161229957Y-58142208D01*
X161181287Y-58134500D01*
X160968713Y-58134500D01*
X160920042Y-58142208D01*
X160758760Y-58167753D01*
X160556585Y-58233444D01*
X160367179Y-58329951D01*
X160195213Y-58454890D01*
X160044890Y-58605213D01*
X159919948Y-58777184D01*
X159919947Y-58777185D01*
X159899765Y-58816795D01*
X159851791Y-58867591D01*
X159789281Y-58884500D01*
X159016330Y-58884500D01*
X159016314Y-58884499D01*
X159008718Y-58884499D01*
X158850603Y-58884499D01*
X158774239Y-58904961D01*
X158697874Y-58925423D01*
X158697869Y-58925426D01*
X158560950Y-59004475D01*
X158560942Y-59004481D01*
X157886681Y-59678743D01*
X157825358Y-59712228D01*
X157755666Y-59707244D01*
X157699733Y-59665372D01*
X157675316Y-59599908D01*
X157675000Y-59591062D01*
X157675000Y-59177172D01*
X157674999Y-59177158D01*
X157668128Y-59113257D01*
X157668128Y-59086743D01*
X157674999Y-59022841D01*
X157675000Y-59022827D01*
X157675000Y-58875000D01*
X156425000Y-58875000D01*
X156425000Y-60575500D01*
X156422449Y-60584185D01*
X156423738Y-60593147D01*
X156412759Y-60617187D01*
X156405315Y-60642539D01*
X156398474Y-60648466D01*
X156394713Y-60656703D01*
X156372478Y-60670992D01*
X156352511Y-60688294D01*
X156341996Y-60690581D01*
X156335935Y-60694477D01*
X156301000Y-60699500D01*
X156279766Y-60699500D01*
X156212727Y-60679815D01*
X156210875Y-60678602D01*
X156079185Y-60590609D01*
X156079172Y-60590602D01*
X156001548Y-60558450D01*
X155947144Y-60514609D01*
X155925079Y-60448315D01*
X155925000Y-60443889D01*
X155925000Y-60389618D01*
X155960064Y-60354554D01*
X156002851Y-60280445D01*
X156025000Y-60197787D01*
X156025000Y-59712213D01*
X156002851Y-59629555D01*
X155960064Y-59555446D01*
X155899554Y-59494936D01*
X155825445Y-59452149D01*
X155750000Y-59431932D01*
X155750000Y-58595000D01*
X156250000Y-58595000D01*
X156262500Y-58595000D01*
X156262500Y-58499000D01*
X156282185Y-58431961D01*
X156334989Y-58386206D01*
X156386500Y-58375000D01*
X157675000Y-58375000D01*
X157675000Y-58227172D01*
X157674999Y-58227155D01*
X157668598Y-58167627D01*
X157668596Y-58167620D01*
X157618354Y-58032913D01*
X157618350Y-58032906D01*
X157532190Y-57917812D01*
X157532187Y-57917809D01*
X157417093Y-57831649D01*
X157417086Y-57831645D01*
X157282379Y-57781403D01*
X157282374Y-57781401D01*
X157260740Y-57779075D01*
X157196190Y-57752334D01*
X157156344Y-57694940D01*
X157150000Y-57655786D01*
X157150000Y-57600000D01*
X156250000Y-57600000D01*
X156250000Y-58595000D01*
X155750000Y-58595000D01*
X155750000Y-57474000D01*
X155762262Y-57432237D01*
X155785095Y-57455070D01*
X155864905Y-57501148D01*
X155953922Y-57525000D01*
X156046078Y-57525000D01*
X156135095Y-57501148D01*
X156214905Y-57455070D01*
X156280070Y-57389905D01*
X156326148Y-57310095D01*
X156350000Y-57221078D01*
X156350000Y-56675000D01*
X157150000Y-56675000D01*
X157150000Y-56047875D01*
X157149999Y-56047860D01*
X157143921Y-55970627D01*
X157106667Y-55831594D01*
X157108330Y-55761744D01*
X157147492Y-55703881D01*
X157211720Y-55676377D01*
X157226442Y-55675500D01*
X162250500Y-55675500D01*
X162317539Y-55695185D01*
G37*
%TD.AperFunction*%
%TA.AperFunction,Conductor*%
G36*
X155375000Y-59712213D02*
G01*
X155375000Y-60197787D01*
X155375005Y-60197807D01*
X155332460Y-60185315D01*
X155286705Y-60132511D01*
X155275499Y-60081000D01*
X155275499Y-59829000D01*
X155295184Y-59761961D01*
X155347988Y-59716206D01*
X155375535Y-59710213D01*
X155375000Y-59712213D01*
G37*
%TD.AperFunction*%
%TA.AperFunction,Conductor*%
G36*
X149390597Y-55695185D02*
G01*
X149436352Y-55747989D01*
X149446296Y-55817147D01*
X149443333Y-55831594D01*
X149406078Y-55970627D01*
X149400000Y-56047860D01*
X149400000Y-56675000D01*
X150200000Y-56675000D01*
X150200000Y-57221078D01*
X150223852Y-57310095D01*
X150269930Y-57389905D01*
X150335095Y-57455070D01*
X150414905Y-57501148D01*
X150503922Y-57525000D01*
X150596078Y-57525000D01*
X150685095Y-57501148D01*
X150764905Y-57455070D01*
X150790347Y-57429627D01*
X150800000Y-57474000D01*
X150800000Y-59431932D01*
X150724555Y-59452149D01*
X150650446Y-59494936D01*
X150589936Y-59555446D01*
X150547149Y-59629555D01*
X150525000Y-59712213D01*
X150525000Y-59949778D01*
X150501000Y-59955000D01*
X150249000Y-59955000D01*
X150181961Y-59935315D01*
X150136206Y-59882511D01*
X150125000Y-59831000D01*
X150125000Y-58719000D01*
X150144685Y-58651961D01*
X150197489Y-58606206D01*
X150249000Y-58595000D01*
X150300000Y-58595000D01*
X150300000Y-57600000D01*
X149400000Y-57600000D01*
X149400000Y-57655786D01*
X149380315Y-57722825D01*
X149327511Y-57768580D01*
X149289260Y-57779075D01*
X149267625Y-57781401D01*
X149267620Y-57781403D01*
X149132913Y-57831645D01*
X149132906Y-57831649D01*
X149017812Y-57917809D01*
X149017809Y-57917812D01*
X148931649Y-58032906D01*
X148931645Y-58032913D01*
X148881403Y-58167620D01*
X148881401Y-58167627D01*
X148875000Y-58227155D01*
X148875000Y-58250340D01*
X148855315Y-58317379D01*
X148802511Y-58363134D01*
X148733353Y-58373078D01*
X148669797Y-58344053D01*
X148645462Y-58315438D01*
X148572573Y-58197268D01*
X148452732Y-58077427D01*
X148452728Y-58077424D01*
X148308492Y-57988457D01*
X148308481Y-57988452D01*
X148147606Y-57935144D01*
X148048322Y-57925000D01*
X148000000Y-57925000D01*
X148000000Y-58751000D01*
X147980315Y-58818039D01*
X147927511Y-58863794D01*
X147876000Y-58875000D01*
X147750000Y-58875000D01*
X147750000Y-59001000D01*
X147730315Y-59068039D01*
X147677511Y-59113794D01*
X147626000Y-59125000D01*
X146775001Y-59125000D01*
X146775001Y-59148322D01*
X146785144Y-59247607D01*
X146838452Y-59408481D01*
X146838457Y-59408492D01*
X146927424Y-59552728D01*
X146927427Y-59552732D01*
X146936660Y-59561965D01*
X146970145Y-59623288D01*
X146965161Y-59692980D01*
X146936663Y-59737324D01*
X146927033Y-59746953D01*
X146927029Y-59746959D01*
X146838001Y-59891294D01*
X146837996Y-59891305D01*
X146782521Y-60058719D01*
X146779815Y-60057822D01*
X146752560Y-60108116D01*
X146691344Y-60141796D01*
X146621636Y-60137033D01*
X146576920Y-60108395D01*
X146561818Y-60093293D01*
X146528333Y-60031970D01*
X146525499Y-60005612D01*
X146525499Y-58601677D01*
X146775000Y-58601677D01*
X146775000Y-58625000D01*
X147500000Y-58625000D01*
X147500000Y-57925000D01*
X147499999Y-57924999D01*
X147451693Y-57925000D01*
X147451675Y-57925001D01*
X147352392Y-57935144D01*
X147191518Y-57988452D01*
X147191507Y-57988457D01*
X147047271Y-58077424D01*
X147047267Y-58077427D01*
X146927427Y-58197267D01*
X146927424Y-58197271D01*
X146838457Y-58341507D01*
X146838452Y-58341518D01*
X146785144Y-58502393D01*
X146775000Y-58601677D01*
X146525499Y-58601677D01*
X146525499Y-58587129D01*
X146525498Y-58587123D01*
X146519091Y-58527516D01*
X146468797Y-58392671D01*
X146468793Y-58392664D01*
X146382547Y-58277455D01*
X146382544Y-58277452D01*
X146267335Y-58191206D01*
X146267328Y-58191202D01*
X146132482Y-58140908D01*
X146132483Y-58140908D01*
X146072883Y-58134501D01*
X146072881Y-58134500D01*
X146072873Y-58134500D01*
X146072864Y-58134500D01*
X144277129Y-58134500D01*
X144277123Y-58134501D01*
X144217516Y-58140908D01*
X144082671Y-58191202D01*
X144082665Y-58191206D01*
X144073810Y-58197835D01*
X144008346Y-58222252D01*
X143940073Y-58207400D01*
X143890668Y-58157995D01*
X143875500Y-58098568D01*
X143875500Y-55799500D01*
X143895185Y-55732461D01*
X143947989Y-55686706D01*
X143999500Y-55675500D01*
X149323558Y-55675500D01*
X149390597Y-55695185D01*
G37*
%TD.AperFunction*%
%TA.AperFunction,Conductor*%
G36*
X154180539Y-56444685D02*
G01*
X154226294Y-56497489D01*
X154237500Y-56549000D01*
X154237500Y-56801000D01*
X154217815Y-56868039D01*
X154165011Y-56913794D01*
X154113500Y-56925000D01*
X152436500Y-56925000D01*
X152369461Y-56905315D01*
X152323706Y-56852511D01*
X152312500Y-56801000D01*
X152312500Y-56549000D01*
X152332185Y-56481961D01*
X152384989Y-56436206D01*
X152436500Y-56425000D01*
X154113500Y-56425000D01*
X154180539Y-56444685D01*
G37*
%TD.AperFunction*%
%TD*%
M02*
