M48
; DRILL file {KiCad 9.0.7} date 2026-04-04T20:26:20+1100
; FORMAT={-:-/ absolute / metric / decimal}
; #@! TF.CreationDate,2026-04-04T20:26:20+11:00
; #@! TF.GenerationSoftware,Kicad,Pcbnew,9.0.7
; #@! TF.FileFunction,Plated,1,2,PTH
FMAT,2
METRIC
; #@! TA.AperFunction,Plated,PTH,ViaDrill
T1C0.150
; #@! TA.AperFunction,Plated,PTH,ViaDrill
T2C0.200
; #@! TA.AperFunction,Plated,PTH,ViaDrill
T3C0.250
; #@! TA.AperFunction,Plated,PTH,ComponentDrill
T4C0.250
; #@! TA.AperFunction,Plated,PTH,ViaDrill
T5C0.300
; #@! TA.AperFunction,Plated,PTH,ComponentDrill
T6C0.650
; #@! TA.AperFunction,Plated,PTH,ComponentDrill
T7C0.700
; #@! TA.AperFunction,Plated,PTH,ComponentDrill
T8C1.000
%
G90
G05
T1
X150.525Y-69.375
X154.7Y-66.204
X155.807Y-64.261
X157.675Y-62.09
T2
X155.65Y-69.375
T3
X148.795Y-70.145
X154.625Y-61.85
X155.711Y-66.41
T4
X151.775Y-67.188
X151.775Y-68.562
X151.775Y-69.938
X153.15Y-67.188
X153.15Y-68.562
X153.15Y-69.938
X154.525Y-67.188
X154.525Y-68.562
X154.525Y-69.938
T5
X146.9Y-68.625
X147.9Y-72.975
X150.675Y-67.0
X150.7Y-61.775
X150.75Y-63.875
X151.4Y-66.275
X152.53Y-62.996
X155.425Y-70.9
X155.7Y-61.3
X158.0Y-73.125
X158.05Y-75.475
X158.075Y-58.85
X159.425Y-65.5
X159.482Y-64.557
T8
X145.175Y-59.485
X145.175Y-62.025
X145.175Y-64.565
X145.175Y-67.105
X145.175Y-69.645
X145.175Y-72.185
X145.175Y-74.725
X161.075Y-59.485
X161.075Y-62.025
X161.075Y-64.565
X161.075Y-67.105
X161.075Y-69.645
X161.075Y-72.185
X161.075Y-74.725
T6
G00X150.85Y-59.755
M15
G01X150.85Y-60.155
M16
G05
G00X155.7Y-59.755
M15
G01X155.7Y-60.155
M16
G05
T7
G00X150.55Y-56.675
M15
G01X150.55Y-57.175
M16
G05
G00X156.0Y-56.675
M15
G01X156.0Y-57.175
M16
G05
M30
