%TF.GenerationSoftware,KiCad,Pcbnew,9.0.7*%
%TF.CreationDate,2026-04-04T20:26:22+11:00*%
%TF.ProjectId,RP2350-Micro-Devboard,52503233-3530-42d4-9d69-63726f2d4465,rev?*%
%TF.SameCoordinates,Original*%
%TF.FileFunction,Copper,L2,Bot*%
%TF.FilePolarity,Positive*%
%FSLAX46Y46*%
G04 Gerber Fmt 4.6, Leading zero omitted, Abs format (unit mm)*
G04 Created by KiCad (PCBNEW 9.0.7) date 2026-04-04 20:26:22*
%MOMM*%
%LPD*%
G01*
G04 APERTURE LIST*
G04 Aperture macros list*
%AMRoundRect*
0 Rectangle with rounded corners*
0 $1 Rounding radius*
0 $2 $3 $4 $5 $6 $7 $8 $9 X,Y pos of 4 corners*
0 Add a 4 corners polygon primitive as box body*
4,1,4,$2,$3,$4,$5,$6,$7,$8,$9,$2,$3,0*
0 Add four circle primitives for the rounded corners*
1,1,$1+$1,$2,$3*
1,1,$1+$1,$4,$5*
1,1,$1+$1,$6,$7*
1,1,$1+$1,$8,$9*
0 Add four rect primitives between the rounded corners*
20,1,$1+$1,$2,$3,$4,$5,0*
20,1,$1+$1,$4,$5,$6,$7,0*
20,1,$1+$1,$6,$7,$8,$9,0*
20,1,$1+$1,$8,$9,$2,$3,0*%
G04 Aperture macros list end*
%TA.AperFunction,ComponentPad*%
%ADD10R,1.700000X1.700000*%
%TD*%
%TA.AperFunction,ComponentPad*%
%ADD11C,1.700000*%
%TD*%
%TA.AperFunction,ComponentPad*%
%ADD12O,1.300000X1.800000*%
%TD*%
%TA.AperFunction,ComponentPad*%
%ADD13O,1.050000X1.450000*%
%TD*%
%TA.AperFunction,ComponentPad*%
%ADD14C,0.600000*%
%TD*%
%TA.AperFunction,SMDPad,CuDef*%
%ADD15RoundRect,0.135000X-0.135000X-0.185000X0.135000X-0.185000X0.135000X0.185000X-0.135000X0.185000X0*%
%TD*%
%TA.AperFunction,SMDPad,CuDef*%
%ADD16C,1.000000*%
%TD*%
%TA.AperFunction,SMDPad,CuDef*%
%ADD17RoundRect,0.200000X0.800000X-0.200000X0.800000X0.200000X-0.800000X0.200000X-0.800000X-0.200000X0*%
%TD*%
%TA.AperFunction,SMDPad,CuDef*%
%ADD18RoundRect,0.140000X0.140000X0.170000X-0.140000X0.170000X-0.140000X-0.170000X0.140000X-0.170000X0*%
%TD*%
%TA.AperFunction,ViaPad*%
%ADD19C,0.500000*%
%TD*%
%TA.AperFunction,ViaPad*%
%ADD20C,0.600000*%
%TD*%
%TA.AperFunction,ViaPad*%
%ADD21C,0.400000*%
%TD*%
%TA.AperFunction,ViaPad*%
%ADD22C,0.250000*%
%TD*%
%TA.AperFunction,Conductor*%
%ADD23C,0.200000*%
%TD*%
G04 APERTURE END LIST*
D10*
%TO.P,J3,1,Pin_1*%
%TO.N,/GPIO7*%
X161075000Y-74725000D03*
D11*
%TO.P,J3,2,Pin_2*%
%TO.N,/GPIO26*%
X161075000Y-72185000D03*
%TO.P,J3,3,Pin_3*%
%TO.N,/GPIO27*%
X161075000Y-69645000D03*
%TO.P,J3,4,Pin_4*%
%TO.N,/GPIO28*%
X161075000Y-67105000D03*
%TO.P,J3,5,Pin_5*%
%TO.N,+3V3*%
X161075000Y-64565000D03*
%TO.P,J3,6,Pin_6*%
%TO.N,GND*%
X161075000Y-62025000D03*
%TO.P,J3,7,Pin_7*%
%TO.N,/VBUS*%
X161075000Y-59485000D03*
%TD*%
D10*
%TO.P,J2,1,Pin_1*%
%TO.N,/GPIO0*%
X145175000Y-59485000D03*
D11*
%TO.P,J2,2,Pin_2*%
%TO.N,/GPIO1*%
X145175000Y-62025000D03*
%TO.P,J2,3,Pin_3*%
%TO.N,/GPIO2*%
X145175000Y-64565000D03*
%TO.P,J2,4,Pin_4*%
%TO.N,/GPIO3*%
X145175000Y-67105000D03*
%TO.P,J2,5,Pin_5*%
%TO.N,/GPIO4*%
X145175000Y-69645000D03*
%TO.P,J2,6,Pin_6*%
%TO.N,/GPIO5*%
X145175000Y-72185000D03*
%TO.P,J2,7,Pin_7*%
%TO.N,/GPIO6*%
X145175000Y-74725000D03*
%TD*%
D12*
%TO.P,J4,6,Shield*%
%TO.N,GND*%
X156000000Y-56925000D03*
D13*
X155700000Y-59955000D03*
X150850000Y-59955000D03*
D12*
X150550000Y-56925000D03*
%TD*%
D14*
%TO.P,U2,61,GND*%
%TO.N,GND*%
X151775000Y-67187500D03*
X151775000Y-68562500D03*
X151775000Y-69937500D03*
X153150000Y-67187500D03*
X153150000Y-68562500D03*
X153150000Y-69937500D03*
X154525000Y-67187500D03*
X154525000Y-68562500D03*
X154525000Y-69937500D03*
%TD*%
D15*
%TO.P,R1,1*%
%TO.N,Net-(R1-Pad1)*%
X148350000Y-67325000D03*
%TO.P,R1,2*%
%TO.N,Net-(U2-QSPI_SS)*%
X149370000Y-67325000D03*
%TD*%
D16*
%TO.P,TP2,1,1*%
%TO.N,GND*%
X147625000Y-74400000D03*
%TD*%
%TO.P,TP4,1,1*%
%TO.N,+1V1*%
X157150000Y-66500000D03*
%TD*%
%TO.P,TP5,1,1*%
%TO.N,GND*%
X159800000Y-56550000D03*
%TD*%
D17*
%TO.P,SW1,1,1*%
%TO.N,Net-(R1-Pad1)*%
X148425000Y-66175000D03*
%TO.P,SW1,2,2*%
%TO.N,GND*%
X148425000Y-61975000D03*
%TD*%
%TO.P,SW2,1,1*%
%TO.N,Net-(R2-Pad1)*%
X155875000Y-76600000D03*
%TO.P,SW2,2,2*%
%TO.N,GND*%
X155875000Y-72400000D03*
%TD*%
D18*
%TO.P,C17,1*%
%TO.N,+1V1*%
X153705000Y-66200000D03*
%TO.P,C17,2*%
%TO.N,GND*%
X152745000Y-66200000D03*
%TD*%
D16*
%TO.P,TP1,1,1*%
%TO.N,/VBUS*%
X147400000Y-57050000D03*
%TD*%
D15*
%TO.P,R2,1*%
%TO.N,Net-(R2-Pad1)*%
X158080000Y-76750000D03*
%TO.P,R2,2*%
%TO.N,Net-(U2-RUN)*%
X159100000Y-76750000D03*
%TD*%
D19*
%TO.N,+3V3*%
X148794863Y-70144863D03*
X155710569Y-66410124D03*
D20*
X150750000Y-63875000D03*
X158000000Y-73125000D03*
X151400000Y-66275000D03*
D21*
X155650000Y-69375000D03*
D20*
%TO.N,GND*%
X159425000Y-65500000D03*
X146900000Y-68625000D03*
X158050000Y-75475000D03*
X159481618Y-64556618D03*
X147900000Y-72975000D03*
D19*
X154625000Y-61850000D03*
X152530001Y-62996413D03*
D22*
X155807485Y-64261485D03*
D20*
X158075000Y-58850000D03*
D22*
%TO.N,+1V1*%
X154699555Y-66204493D03*
X157675000Y-62090000D03*
D20*
%TO.N,/VBUS*%
X155700000Y-61300000D03*
X150700000Y-61775000D03*
D22*
%TO.N,/GPIO7*%
X150525000Y-69375000D03*
D20*
%TO.N,Net-(U2-RUN)*%
X155425000Y-70900000D03*
%TO.N,Net-(U2-QSPI_SS)*%
X150675000Y-67000000D03*
%TD*%
D23*
%TO.N,+3V3*%
X152901057Y-67788500D02*
X152376000Y-67263443D01*
X155350000Y-69075000D02*
X155350000Y-68364557D01*
X155650000Y-69375000D02*
X157300000Y-69375000D01*
X155687722Y-66432971D02*
X155687722Y-66874721D01*
X158000000Y-70075000D02*
X158000000Y-73125000D01*
X157300000Y-69375000D02*
X158000000Y-70075000D01*
X150750000Y-63875000D02*
X150750000Y-65625000D01*
X151151226Y-67788500D02*
X152901057Y-67788500D01*
X152376000Y-66938557D02*
X151712443Y-66275000D01*
X155650000Y-69375000D02*
X155350000Y-69075000D01*
X155710569Y-66410124D02*
X155687722Y-66432971D01*
X150750000Y-65625000D02*
X151400000Y-66275000D01*
X154773943Y-67788500D02*
X152901057Y-67788500D01*
X160091000Y-71034000D02*
X161391000Y-71034000D01*
X155350000Y-68364557D02*
X154773943Y-67788500D01*
X162226000Y-65716000D02*
X161075000Y-64565000D01*
X155687722Y-66874721D02*
X154773943Y-67788500D01*
X162226000Y-70199000D02*
X162226000Y-65716000D01*
X161391000Y-71034000D02*
X162226000Y-70199000D01*
X152376000Y-67263443D02*
X152376000Y-66938557D01*
X151712443Y-66275000D02*
X151400000Y-66275000D01*
X158000000Y-73125000D02*
X160091000Y-71034000D01*
X148794863Y-70144863D02*
X151151226Y-67788500D01*
%TO.N,GND*%
X147900000Y-74125000D02*
X147625000Y-74400000D01*
X154525000Y-67187500D02*
X154525000Y-66975000D01*
X156200000Y-71850000D02*
X156200000Y-70825057D01*
X155800000Y-72250000D02*
X156200000Y-71850000D01*
X159005000Y-59955000D02*
X155700000Y-59955000D01*
X158075000Y-58275000D02*
X159800000Y-56550000D01*
X152850000Y-66887500D02*
X152850000Y-63625000D01*
X154525000Y-66975000D02*
X154550000Y-66950000D01*
X159924000Y-64114236D02*
X159924000Y-63176000D01*
X152850000Y-63625000D02*
X154625000Y-61850000D01*
X158075000Y-58850000D02*
X158075000Y-58275000D01*
X159924000Y-63176000D02*
X161075000Y-62025000D01*
X147900000Y-72975000D02*
X147900000Y-74125000D01*
X156200000Y-70825057D02*
X155312443Y-69937500D01*
X153150000Y-67187500D02*
X153150000Y-66605000D01*
X153150000Y-67187500D02*
X152850000Y-66887500D01*
X161075000Y-62025000D02*
X159005000Y-59955000D01*
X155312443Y-69937500D02*
X154525000Y-69937500D01*
X159481618Y-64556618D02*
X159924000Y-64114236D01*
X153150000Y-66605000D02*
X152745000Y-66200000D01*
X154525000Y-69937500D02*
X154525000Y-69513236D01*
%TO.N,+1V1*%
X153705000Y-66200000D02*
X154695062Y-66200000D01*
X158150000Y-63000000D02*
X157150000Y-64000000D01*
X154945507Y-66204493D02*
X154699555Y-66204493D01*
X158150000Y-62325000D02*
X158150000Y-63000000D01*
X157150000Y-64000000D02*
X154945507Y-66204493D01*
X154695062Y-66200000D02*
X154699555Y-66204493D01*
X157675000Y-62090000D02*
X157915000Y-62090000D01*
X157150000Y-66500000D02*
X157150000Y-64000000D01*
X157915000Y-62090000D02*
X158150000Y-62325000D01*
%TO.N,/VBUS*%
X150826860Y-61300000D02*
X147400000Y-57873140D01*
X147400000Y-57873140D02*
X147400000Y-57050000D01*
X151175000Y-61300000D02*
X150826860Y-61300000D01*
X151175000Y-61300000D02*
X150700000Y-61775000D01*
X155700000Y-61300000D02*
X151175000Y-61300000D01*
%TO.N,/GPIO7*%
X150649212Y-73774212D02*
X150649212Y-69499212D01*
X150649212Y-73774212D02*
X151600000Y-74725000D01*
X150649212Y-69499212D02*
X150525000Y-69375000D01*
X151600000Y-74725000D02*
X161075000Y-74725000D01*
%TO.N,Net-(U2-RUN)*%
X154574000Y-71751000D02*
X155425000Y-70900000D01*
X162225000Y-75877000D02*
X162225000Y-73573000D01*
X162225000Y-73573000D02*
X161988000Y-73336000D01*
X154574000Y-72813064D02*
X154574000Y-71751000D01*
X159100000Y-76750000D02*
X161352000Y-76750000D01*
X158248943Y-73726000D02*
X155486936Y-73726000D01*
X161352000Y-76750000D02*
X162225000Y-75877000D01*
X155486936Y-73726000D02*
X154574000Y-72813064D01*
X158638943Y-73336000D02*
X158248943Y-73726000D01*
X161988000Y-73336000D02*
X158638943Y-73336000D01*
%TO.N,Net-(U2-QSPI_SS)*%
X150350000Y-67325000D02*
X150675000Y-67000000D01*
X149370000Y-67325000D02*
X150350000Y-67325000D01*
%TO.N,Net-(R1-Pad1)*%
X148350000Y-67325000D02*
X148350000Y-66250000D01*
X148350000Y-66250000D02*
X148425000Y-66175000D01*
%TO.N,Net-(R2-Pad1)*%
X158080000Y-76750000D02*
X156025000Y-76750000D01*
X156025000Y-76750000D02*
X155875000Y-76600000D01*
%TD*%
%TA.AperFunction,Conductor*%
%TO.N,GND*%
G36*
X149690831Y-55695185D02*
G01*
X149736586Y-55747989D01*
X149746530Y-55817147D01*
X149717505Y-55880703D01*
X149711473Y-55887181D01*
X149672827Y-55925826D01*
X149672823Y-55925830D01*
X149566434Y-56072265D01*
X149484252Y-56233552D01*
X149484251Y-56233555D01*
X149428317Y-56405706D01*
X149400000Y-56584493D01*
X149400000Y-56675000D01*
X150200000Y-56675000D01*
X150200000Y-57175000D01*
X149400000Y-57175000D01*
X149400000Y-57265506D01*
X149428317Y-57444293D01*
X149484251Y-57616444D01*
X149484252Y-57616447D01*
X149566434Y-57777734D01*
X149672823Y-57924169D01*
X149800830Y-58052176D01*
X149947265Y-58158565D01*
X150108552Y-58240747D01*
X150108555Y-58240748D01*
X150280699Y-58296680D01*
X150280712Y-58296683D01*
X150300000Y-58299738D01*
X150300000Y-57419975D01*
X150335095Y-57455070D01*
X150414905Y-57501148D01*
X150503922Y-57525000D01*
X150596078Y-57525000D01*
X150685095Y-57501148D01*
X150764905Y-57455070D01*
X150800000Y-57419975D01*
X150800000Y-58299737D01*
X150819287Y-58296683D01*
X150819300Y-58296680D01*
X150991444Y-58240748D01*
X150991447Y-58240747D01*
X151152734Y-58158565D01*
X151299169Y-58052176D01*
X151427176Y-57924169D01*
X151533565Y-57777734D01*
X151615747Y-57616447D01*
X151615748Y-57616444D01*
X151671682Y-57444293D01*
X151700000Y-57265506D01*
X151700000Y-57175000D01*
X150900000Y-57175000D01*
X150900000Y-56675000D01*
X151700000Y-56675000D01*
X151700000Y-56584493D01*
X151671682Y-56405706D01*
X151615748Y-56233555D01*
X151615747Y-56233552D01*
X151533565Y-56072265D01*
X151427176Y-55925830D01*
X151388527Y-55887181D01*
X151355042Y-55825858D01*
X151360026Y-55756166D01*
X151401898Y-55700233D01*
X151467362Y-55675816D01*
X151476208Y-55675500D01*
X155073792Y-55675500D01*
X155140831Y-55695185D01*
X155186586Y-55747989D01*
X155196530Y-55817147D01*
X155167505Y-55880703D01*
X155161473Y-55887181D01*
X155122827Y-55925826D01*
X155122823Y-55925830D01*
X155016434Y-56072265D01*
X154934252Y-56233552D01*
X154934251Y-56233555D01*
X154878317Y-56405706D01*
X154850000Y-56584493D01*
X154850000Y-56675000D01*
X155650000Y-56675000D01*
X155650000Y-57175000D01*
X154850000Y-57175000D01*
X154850000Y-57265506D01*
X154878317Y-57444293D01*
X154934251Y-57616444D01*
X154934252Y-57616447D01*
X155016434Y-57777734D01*
X155122823Y-57924169D01*
X155250830Y-58052176D01*
X155397265Y-58158565D01*
X155558552Y-58240747D01*
X155558555Y-58240748D01*
X155730699Y-58296680D01*
X155730712Y-58296683D01*
X155750000Y-58299738D01*
X155750000Y-57419975D01*
X155785095Y-57455070D01*
X155864905Y-57501148D01*
X155953922Y-57525000D01*
X156046078Y-57525000D01*
X156135095Y-57501148D01*
X156214905Y-57455070D01*
X156250000Y-57419975D01*
X156250000Y-58299737D01*
X156269287Y-58296683D01*
X156269300Y-58296680D01*
X156441444Y-58240748D01*
X156441447Y-58240747D01*
X156602734Y-58158565D01*
X156749169Y-58052176D01*
X156877176Y-57924169D01*
X156983565Y-57777734D01*
X157065747Y-57616447D01*
X157065748Y-57616444D01*
X157121683Y-57444292D01*
X157126707Y-57412572D01*
X159290979Y-57412572D01*
X159326328Y-57436192D01*
X159508306Y-57511569D01*
X159508318Y-57511572D01*
X159701504Y-57549999D01*
X159701508Y-57550000D01*
X159898492Y-57550000D01*
X159898495Y-57549999D01*
X160091681Y-57511572D01*
X160091693Y-57511569D01*
X160273676Y-57436190D01*
X160273680Y-57436187D01*
X160309019Y-57412573D01*
X160309020Y-57412572D01*
X159800001Y-56903553D01*
X159800000Y-56903553D01*
X159290979Y-57412572D01*
X157126707Y-57412572D01*
X157137098Y-57346965D01*
X157137098Y-57346964D01*
X157150000Y-57265505D01*
X157150000Y-57175000D01*
X156350000Y-57175000D01*
X156350000Y-56675000D01*
X157150000Y-56675000D01*
X157150000Y-56584493D01*
X157131045Y-56464815D01*
X157128937Y-56451504D01*
X158800000Y-56451504D01*
X158800000Y-56648495D01*
X158838427Y-56841681D01*
X158838430Y-56841693D01*
X158913808Y-57023673D01*
X158913809Y-57023675D01*
X158937425Y-57059019D01*
X159446446Y-56550000D01*
X159446446Y-56549999D01*
X160153553Y-56549999D01*
X160153553Y-56550000D01*
X160662572Y-57059020D01*
X160662573Y-57059019D01*
X160686187Y-57023680D01*
X160686190Y-57023676D01*
X160761569Y-56841693D01*
X160761572Y-56841681D01*
X160799999Y-56648495D01*
X160800000Y-56648492D01*
X160800000Y-56451508D01*
X160799999Y-56451504D01*
X160761572Y-56258318D01*
X160761569Y-56258306D01*
X160686192Y-56076328D01*
X160662572Y-56040979D01*
X160153553Y-56549999D01*
X159446446Y-56549999D01*
X158937426Y-56040978D01*
X158937426Y-56040979D01*
X158913813Y-56076318D01*
X158913809Y-56076325D01*
X158838429Y-56258310D01*
X158838427Y-56258318D01*
X158800000Y-56451504D01*
X157128937Y-56451504D01*
X157121682Y-56405706D01*
X157065748Y-56233555D01*
X157065747Y-56233552D01*
X156983565Y-56072265D01*
X156877176Y-55925830D01*
X156838527Y-55887181D01*
X156805042Y-55825858D01*
X156810026Y-55756166D01*
X156851898Y-55700233D01*
X156917362Y-55675816D01*
X156926208Y-55675500D01*
X159227690Y-55675500D01*
X159294729Y-55695185D01*
X159315371Y-55711819D01*
X159800000Y-56196446D01*
X159800001Y-56196446D01*
X160284627Y-55711819D01*
X160345950Y-55678334D01*
X160372308Y-55675500D01*
X162250500Y-55675500D01*
X162317539Y-55695185D01*
X162363294Y-55747989D01*
X162374500Y-55799500D01*
X162374500Y-58594366D01*
X162354815Y-58661405D01*
X162302011Y-58707160D01*
X162232853Y-58717104D01*
X162169297Y-58688079D01*
X162150182Y-58667251D01*
X162105109Y-58605214D01*
X162105105Y-58605209D01*
X161954786Y-58454890D01*
X161782820Y-58329951D01*
X161593414Y-58233444D01*
X161593413Y-58233443D01*
X161593412Y-58233443D01*
X161391243Y-58167754D01*
X161391241Y-58167753D01*
X161391240Y-58167753D01*
X161229957Y-58142208D01*
X161181287Y-58134500D01*
X160968713Y-58134500D01*
X160920042Y-58142208D01*
X160758760Y-58167753D01*
X160556585Y-58233444D01*
X160367179Y-58329951D01*
X160195213Y-58454890D01*
X160044890Y-58605213D01*
X159919951Y-58777179D01*
X159823444Y-58966585D01*
X159757753Y-59168760D01*
X159724500Y-59378713D01*
X159724500Y-59591286D01*
X159757753Y-59801239D01*
X159823444Y-60003414D01*
X159919951Y-60192820D01*
X160044890Y-60364786D01*
X160195213Y-60515109D01*
X160367179Y-60640048D01*
X160367181Y-60640049D01*
X160367184Y-60640051D01*
X160376493Y-60644794D01*
X160427290Y-60692766D01*
X160444087Y-60760587D01*
X160421552Y-60826722D01*
X160376505Y-60865760D01*
X160367446Y-60870376D01*
X160367440Y-60870380D01*
X160313282Y-60909727D01*
X160313282Y-60909728D01*
X160945591Y-61542037D01*
X160882007Y-61559075D01*
X160767993Y-61624901D01*
X160674901Y-61717993D01*
X160609075Y-61832007D01*
X160592037Y-61895591D01*
X159959728Y-61263282D01*
X159959727Y-61263282D01*
X159920380Y-61317439D01*
X159823904Y-61506782D01*
X159758242Y-61708869D01*
X159758242Y-61708872D01*
X159725000Y-61918753D01*
X159725000Y-62131246D01*
X159758242Y-62341127D01*
X159758242Y-62341130D01*
X159823904Y-62543217D01*
X159920375Y-62732550D01*
X159959728Y-62786716D01*
X160592037Y-62154408D01*
X160609075Y-62217993D01*
X160674901Y-62332007D01*
X160767993Y-62425099D01*
X160882007Y-62490925D01*
X160945590Y-62507962D01*
X160313282Y-63140269D01*
X160313282Y-63140270D01*
X160367452Y-63179626D01*
X160367451Y-63179626D01*
X160376495Y-63184234D01*
X160427292Y-63232208D01*
X160444087Y-63300029D01*
X160421550Y-63366164D01*
X160376499Y-63405202D01*
X160367182Y-63409949D01*
X160195213Y-63534890D01*
X160044890Y-63685213D01*
X159919951Y-63857179D01*
X159823444Y-64046585D01*
X159757753Y-64248760D01*
X159724500Y-64458713D01*
X159724500Y-64671286D01*
X159757753Y-64881239D01*
X159823444Y-65083414D01*
X159919951Y-65272820D01*
X160044890Y-65444786D01*
X160195213Y-65595109D01*
X160367182Y-65720050D01*
X160375946Y-65724516D01*
X160426742Y-65772491D01*
X160443536Y-65840312D01*
X160420998Y-65906447D01*
X160375946Y-65945484D01*
X160367182Y-65949949D01*
X160195213Y-66074890D01*
X160044890Y-66225213D01*
X159919951Y-66397179D01*
X159823444Y-66586585D01*
X159757753Y-66788760D01*
X159724500Y-66998713D01*
X159724500Y-67211286D01*
X159752272Y-67386635D01*
X159757754Y-67421243D01*
X159819151Y-67610204D01*
X159823444Y-67623414D01*
X159919951Y-67812820D01*
X160044890Y-67984786D01*
X160195213Y-68135109D01*
X160367182Y-68260050D01*
X160375946Y-68264516D01*
X160426742Y-68312491D01*
X160443536Y-68380312D01*
X160420998Y-68446447D01*
X160375946Y-68485484D01*
X160367182Y-68489949D01*
X160195213Y-68614890D01*
X160044890Y-68765213D01*
X159919951Y-68937179D01*
X159823444Y-69126585D01*
X159757753Y-69328760D01*
X159742795Y-69423203D01*
X159724500Y-69538713D01*
X159724500Y-69751287D01*
X159730532Y-69789374D01*
X159756278Y-69951929D01*
X159757754Y-69961243D01*
X159812672Y-70130263D01*
X159823444Y-70163414D01*
X159900599Y-70314840D01*
X159913495Y-70383510D01*
X159887219Y-70448250D01*
X159852114Y-70478522D01*
X159722287Y-70553477D01*
X159722282Y-70553481D01*
X158812181Y-71463583D01*
X158750858Y-71497068D01*
X158681166Y-71492084D01*
X158625233Y-71450212D01*
X158600816Y-71384748D01*
X158600500Y-71375902D01*
X158600500Y-69995945D01*
X158600500Y-69995943D01*
X158559577Y-69843216D01*
X158524987Y-69783303D01*
X158480524Y-69706290D01*
X158480521Y-69706286D01*
X158480520Y-69706284D01*
X158368716Y-69594480D01*
X158368715Y-69594479D01*
X158364385Y-69590149D01*
X158364374Y-69590139D01*
X157787590Y-69013355D01*
X157787588Y-69013352D01*
X157668717Y-68894481D01*
X157668716Y-68894480D01*
X157558568Y-68830886D01*
X157558566Y-68830885D01*
X157531785Y-68815423D01*
X157531784Y-68815422D01*
X157531783Y-68815422D01*
X157475881Y-68800443D01*
X157379057Y-68774499D01*
X157220943Y-68774499D01*
X157213347Y-68774499D01*
X157213331Y-68774500D01*
X156074500Y-68774500D01*
X156065814Y-68771949D01*
X156056853Y-68773238D01*
X156032812Y-68762259D01*
X156007461Y-68754815D01*
X156001533Y-68747974D01*
X155993297Y-68744213D01*
X155979007Y-68721978D01*
X155961706Y-68702011D01*
X155959418Y-68691496D01*
X155955523Y-68685435D01*
X155950500Y-68650500D01*
X155950500Y-68453617D01*
X155950501Y-68453604D01*
X155950501Y-68285501D01*
X155944878Y-68264516D01*
X155909577Y-68132773D01*
X155889426Y-68097870D01*
X155830524Y-67995847D01*
X155830518Y-67995839D01*
X155710859Y-67876180D01*
X155677374Y-67814857D01*
X155682358Y-67745165D01*
X155710859Y-67700818D01*
X156168242Y-67243437D01*
X156201009Y-67186681D01*
X156251576Y-67138466D01*
X156320183Y-67125242D01*
X156385048Y-67151210D01*
X156396078Y-67161000D01*
X156512214Y-67277136D01*
X156512218Y-67277139D01*
X156676079Y-67386628D01*
X156676092Y-67386635D01*
X156858160Y-67462049D01*
X156858165Y-67462051D01*
X156858169Y-67462051D01*
X156858170Y-67462052D01*
X157051456Y-67500500D01*
X157051459Y-67500500D01*
X157248543Y-67500500D01*
X157378582Y-67474632D01*
X157441835Y-67462051D01*
X157623914Y-67386632D01*
X157787782Y-67277139D01*
X157927139Y-67137782D01*
X158036632Y-66973914D01*
X158112051Y-66791835D01*
X158143474Y-66633865D01*
X158150500Y-66598543D01*
X158150500Y-66401456D01*
X158112052Y-66208170D01*
X158112051Y-66208169D01*
X158112051Y-66208165D01*
X158084422Y-66141462D01*
X158036635Y-66026092D01*
X158036628Y-66026079D01*
X157927139Y-65862218D01*
X157927136Y-65862214D01*
X157786819Y-65721897D01*
X157753334Y-65660574D01*
X157750500Y-65634216D01*
X157750500Y-64300097D01*
X157770185Y-64233058D01*
X157786819Y-64212416D01*
X158142056Y-63857179D01*
X158630520Y-63368716D01*
X158709577Y-63231784D01*
X158750501Y-63079057D01*
X158750501Y-62920942D01*
X158750501Y-62913347D01*
X158750500Y-62913329D01*
X158750500Y-62245945D01*
X158750500Y-62245943D01*
X158709577Y-62093215D01*
X158662077Y-62010943D01*
X158630520Y-61956284D01*
X158518716Y-61844480D01*
X158518715Y-61844479D01*
X158514385Y-61840149D01*
X158514374Y-61840139D01*
X158402590Y-61728355D01*
X158402588Y-61728352D01*
X158283717Y-61609481D01*
X158283709Y-61609475D01*
X158168942Y-61543215D01*
X158168941Y-61543214D01*
X158152095Y-61533489D01*
X158146785Y-61530423D01*
X157994057Y-61489499D01*
X157994054Y-61489499D01*
X157874503Y-61489499D01*
X157850313Y-61487117D01*
X157842706Y-61485604D01*
X157736606Y-61464500D01*
X157613394Y-61464500D01*
X157613389Y-61464500D01*
X157492555Y-61488535D01*
X157492545Y-61488538D01*
X157378716Y-61535687D01*
X157378707Y-61535692D01*
X157276267Y-61604141D01*
X157276263Y-61604144D01*
X157189144Y-61691263D01*
X157189141Y-61691267D01*
X157120692Y-61793707D01*
X157120687Y-61793716D01*
X157073538Y-61907545D01*
X157073535Y-61907555D01*
X157049500Y-62028389D01*
X157049500Y-62151610D01*
X157073535Y-62272444D01*
X157073538Y-62272454D01*
X157120687Y-62386283D01*
X157120692Y-62386292D01*
X157189141Y-62488732D01*
X157189144Y-62488736D01*
X157276263Y-62575855D01*
X157276267Y-62575858D01*
X157378707Y-62644307D01*
X157378711Y-62644309D01*
X157378714Y-62644311D01*
X157390958Y-62649382D01*
X157403652Y-62654641D01*
X157458055Y-62698482D01*
X157480120Y-62764777D01*
X157462841Y-62832476D01*
X157443880Y-62856883D01*
X156781286Y-63519478D01*
X156669478Y-63631286D01*
X154758091Y-65542674D01*
X154738398Y-65553426D01*
X154721367Y-65568039D01*
X154705322Y-65571488D01*
X154696768Y-65576159D01*
X154687454Y-65577816D01*
X154678973Y-65578993D01*
X154637949Y-65578993D01*
X154543276Y-65597823D01*
X154539680Y-65598323D01*
X154537652Y-65598021D01*
X154522636Y-65599500D01*
X154371666Y-65599500D01*
X154304627Y-65579815D01*
X154283984Y-65563180D01*
X154240692Y-65519887D01*
X154240684Y-65519881D01*
X154108953Y-65441976D01*
X154101395Y-65437506D01*
X154101394Y-65437505D01*
X154101393Y-65437505D01*
X154101390Y-65437504D01*
X153945997Y-65392357D01*
X153945991Y-65392356D01*
X153909697Y-65389500D01*
X153909690Y-65389500D01*
X153500310Y-65389500D01*
X153500302Y-65389500D01*
X153464008Y-65392356D01*
X153464002Y-65392357D01*
X153308609Y-65437504D01*
X153308604Y-65437506D01*
X153287628Y-65449911D01*
X153219903Y-65467092D01*
X153161389Y-65449911D01*
X153141191Y-65437966D01*
X153141190Y-65437965D01*
X152995001Y-65395493D01*
X152995000Y-65395494D01*
X152995000Y-65701645D01*
X152977734Y-65764763D01*
X152972507Y-65773600D01*
X152972504Y-65773608D01*
X152927357Y-65929002D01*
X152927356Y-65929008D01*
X152924500Y-65965302D01*
X152924500Y-66076000D01*
X152921949Y-66084685D01*
X152923238Y-66093647D01*
X152912259Y-66117687D01*
X152904815Y-66143039D01*
X152897974Y-66148966D01*
X152894213Y-66157203D01*
X152871978Y-66171492D01*
X152852011Y-66188794D01*
X152841496Y-66191081D01*
X152835435Y-66194977D01*
X152800500Y-66200000D01*
X152619000Y-66200000D01*
X152551961Y-66180315D01*
X152506206Y-66127511D01*
X152495000Y-66076000D01*
X152495000Y-65395494D01*
X152494998Y-65395493D01*
X152348809Y-65437965D01*
X152348806Y-65437967D01*
X152209625Y-65520278D01*
X152209620Y-65520282D01*
X152095276Y-65634627D01*
X152092550Y-65638142D01*
X152035905Y-65679045D01*
X151966138Y-65682830D01*
X151916544Y-65655193D01*
X151914999Y-65657076D01*
X151910288Y-65653210D01*
X151779185Y-65565609D01*
X151779172Y-65565602D01*
X151633501Y-65505264D01*
X151633491Y-65505261D01*
X151478149Y-65474361D01*
X151461392Y-65465595D01*
X151442914Y-65461576D01*
X151417877Y-65442833D01*
X151416238Y-65441976D01*
X151414660Y-65440425D01*
X151386819Y-65412584D01*
X151353334Y-65351261D01*
X151350500Y-65324903D01*
X151350500Y-64454765D01*
X151370185Y-64387726D01*
X151371398Y-64385874D01*
X151459390Y-64254185D01*
X151459390Y-64254184D01*
X151459394Y-64254179D01*
X151519737Y-64108497D01*
X151550500Y-63953842D01*
X151550500Y-63796158D01*
X151550500Y-63796155D01*
X151550499Y-63796153D01*
X151531860Y-63702451D01*
X151519737Y-63641503D01*
X151515504Y-63631284D01*
X151459397Y-63495827D01*
X151459390Y-63495814D01*
X151371789Y-63364711D01*
X151371786Y-63364707D01*
X151260292Y-63253213D01*
X151260288Y-63253210D01*
X151129185Y-63165609D01*
X151129172Y-63165602D01*
X150983501Y-63105264D01*
X150983489Y-63105261D01*
X150828845Y-63074500D01*
X150828842Y-63074500D01*
X150671158Y-63074500D01*
X150671155Y-63074500D01*
X150516510Y-63105261D01*
X150516498Y-63105264D01*
X150370827Y-63165602D01*
X150370814Y-63165609D01*
X150239711Y-63253210D01*
X150239707Y-63253213D01*
X150128213Y-63364707D01*
X150128210Y-63364711D01*
X150040609Y-63495814D01*
X150040602Y-63495827D01*
X149980264Y-63641498D01*
X149980261Y-63641510D01*
X149949500Y-63796153D01*
X149949500Y-63953846D01*
X149980261Y-64108489D01*
X149980264Y-64108501D01*
X150040602Y-64254172D01*
X150040609Y-64254185D01*
X150128602Y-64385874D01*
X150149480Y-64452551D01*
X150149500Y-64454765D01*
X150149500Y-65538330D01*
X150149499Y-65538348D01*
X150149499Y-65704054D01*
X150149498Y-65704054D01*
X150154981Y-65724516D01*
X150190423Y-65856785D01*
X150190424Y-65856787D01*
X150190423Y-65856787D01*
X150204568Y-65881285D01*
X150204569Y-65881287D01*
X150269475Y-65993709D01*
X150269481Y-65993717D01*
X150355903Y-66080139D01*
X150389388Y-66141462D01*
X150384404Y-66211154D01*
X150342532Y-66267087D01*
X150315679Y-66282379D01*
X150295828Y-66290602D01*
X150295814Y-66290609D01*
X150164711Y-66378210D01*
X150164707Y-66378213D01*
X150137181Y-66405740D01*
X150075858Y-66439225D01*
X150006166Y-66434241D01*
X149950233Y-66392369D01*
X149925816Y-66326905D01*
X149925500Y-66318059D01*
X149925500Y-65918386D01*
X149924415Y-65906447D01*
X149919086Y-65847804D01*
X149868478Y-65685394D01*
X149780472Y-65539815D01*
X149780470Y-65539813D01*
X149780469Y-65539811D01*
X149660188Y-65419530D01*
X149588619Y-65376265D01*
X149514606Y-65331522D01*
X149352196Y-65280914D01*
X149352194Y-65280913D01*
X149352192Y-65280913D01*
X149302778Y-65276423D01*
X149281616Y-65274500D01*
X147568384Y-65274500D01*
X147549145Y-65276248D01*
X147497807Y-65280913D01*
X147335393Y-65331522D01*
X147189811Y-65419530D01*
X147069530Y-65539811D01*
X146981522Y-65685393D01*
X146930913Y-65847807D01*
X146929604Y-65862214D01*
X146924500Y-65918384D01*
X146924500Y-66431616D01*
X146926423Y-66452778D01*
X146930913Y-66502192D01*
X146930913Y-66502194D01*
X146930914Y-66502196D01*
X146981522Y-66664606D01*
X147066971Y-66805956D01*
X147069530Y-66810188D01*
X147189811Y-66930469D01*
X147189813Y-66930470D01*
X147189815Y-66930472D01*
X147335394Y-67018478D01*
X147492390Y-67067399D01*
X147550538Y-67106136D01*
X147578512Y-67170161D01*
X147579500Y-67185784D01*
X147579500Y-67574169D01*
X147579501Y-67574191D01*
X147582335Y-67610205D01*
X147627129Y-67764388D01*
X147627131Y-67764393D01*
X147708863Y-67902595D01*
X147708869Y-67902603D01*
X147822396Y-68016130D01*
X147822400Y-68016133D01*
X147822402Y-68016135D01*
X147960607Y-68097869D01*
X147960614Y-68097871D01*
X148114791Y-68142664D01*
X148114794Y-68142664D01*
X148114796Y-68142665D01*
X148150819Y-68145500D01*
X148549180Y-68145499D01*
X148585204Y-68142665D01*
X148739393Y-68097869D01*
X148796882Y-68063869D01*
X148864602Y-68046688D01*
X148923117Y-68063869D01*
X148980607Y-68097869D01*
X148980610Y-68097869D01*
X148980612Y-68097871D01*
X149134791Y-68142664D01*
X149134794Y-68142664D01*
X149134796Y-68142665D01*
X149170819Y-68145500D01*
X149569180Y-68145499D01*
X149605204Y-68142665D01*
X149624355Y-68137101D01*
X149694223Y-68137300D01*
X149752894Y-68175241D01*
X149781738Y-68238879D01*
X149771597Y-68308009D01*
X149746631Y-68343858D01*
X148716562Y-69373927D01*
X148655239Y-69407412D01*
X148653073Y-69407863D01*
X148575955Y-69423203D01*
X148575947Y-69423205D01*
X148439374Y-69479775D01*
X148439361Y-69479782D01*
X148316447Y-69561911D01*
X148316443Y-69561914D01*
X148211914Y-69666443D01*
X148211911Y-69666447D01*
X148129782Y-69789361D01*
X148129775Y-69789374D01*
X148073206Y-69925945D01*
X148073203Y-69925955D01*
X148044363Y-70070942D01*
X148044363Y-70070945D01*
X148044363Y-70218781D01*
X148044363Y-70218783D01*
X148044362Y-70218783D01*
X148073203Y-70363770D01*
X148073206Y-70363780D01*
X148129775Y-70500351D01*
X148129782Y-70500364D01*
X148211911Y-70623278D01*
X148211914Y-70623282D01*
X148316443Y-70727811D01*
X148316447Y-70727814D01*
X148439361Y-70809943D01*
X148439374Y-70809950D01*
X148575945Y-70866519D01*
X148575950Y-70866521D01*
X148575954Y-70866521D01*
X148575955Y-70866522D01*
X148720942Y-70895363D01*
X148720945Y-70895363D01*
X148868783Y-70895363D01*
X148966325Y-70875959D01*
X149013776Y-70866521D01*
X149150358Y-70809947D01*
X149273279Y-70727814D01*
X149377814Y-70623279D01*
X149459947Y-70500358D01*
X149516521Y-70363776D01*
X149531862Y-70286649D01*
X149564244Y-70224742D01*
X149565739Y-70223220D01*
X149837031Y-69951929D01*
X149898354Y-69918444D01*
X149968046Y-69923428D01*
X150023979Y-69965300D01*
X150048396Y-70030764D01*
X150048712Y-70039610D01*
X150048712Y-73687542D01*
X150048711Y-73687560D01*
X150048711Y-73853266D01*
X150048710Y-73853266D01*
X150063176Y-73907251D01*
X150089635Y-74005997D01*
X150096092Y-74017181D01*
X150096093Y-74017184D01*
X150096094Y-74017184D01*
X150168689Y-74142924D01*
X150168693Y-74142929D01*
X150287561Y-74261797D01*
X150287567Y-74261802D01*
X151115139Y-75089374D01*
X151115149Y-75089385D01*
X151119479Y-75093715D01*
X151119480Y-75093716D01*
X151231284Y-75205520D01*
X151296917Y-75243412D01*
X151318095Y-75255639D01*
X151318097Y-75255641D01*
X151368213Y-75284576D01*
X151368215Y-75284577D01*
X151520942Y-75325500D01*
X151520943Y-75325500D01*
X159600501Y-75325500D01*
X159667540Y-75345185D01*
X159713295Y-75397989D01*
X159724501Y-75449500D01*
X159724501Y-75622876D01*
X159730908Y-75682483D01*
X159781202Y-75817328D01*
X159781206Y-75817335D01*
X159867452Y-75932544D01*
X159872727Y-75937819D01*
X159883339Y-75957255D01*
X159897840Y-75973989D01*
X159899756Y-75987320D01*
X159906212Y-75999142D01*
X159904632Y-76021228D01*
X159907784Y-76043147D01*
X159902188Y-76055398D01*
X159901228Y-76068834D01*
X159887957Y-76086560D01*
X159878759Y-76106703D01*
X159867427Y-76113985D01*
X159859356Y-76124767D01*
X159838610Y-76132504D01*
X159819981Y-76144477D01*
X159798062Y-76147628D01*
X159793892Y-76149184D01*
X159785046Y-76149500D01*
X159769595Y-76149500D01*
X159702556Y-76129815D01*
X159681918Y-76113185D01*
X159627598Y-76058865D01*
X159601020Y-76043147D01*
X159489393Y-75977131D01*
X159489388Y-75977129D01*
X159335208Y-75932335D01*
X159335202Y-75932334D01*
X159299181Y-75929500D01*
X158900830Y-75929500D01*
X158900808Y-75929501D01*
X158864794Y-75932335D01*
X158710611Y-75977129D01*
X158710604Y-75977132D01*
X158653119Y-76011128D01*
X158585395Y-76028309D01*
X158526881Y-76011128D01*
X158469395Y-75977132D01*
X158469388Y-75977129D01*
X158315208Y-75932335D01*
X158315202Y-75932334D01*
X158279181Y-75929500D01*
X157880830Y-75929500D01*
X157880808Y-75929501D01*
X157844794Y-75932335D01*
X157690611Y-75977129D01*
X157690606Y-75977131D01*
X157552404Y-76058863D01*
X157552395Y-76058870D01*
X157499112Y-76112153D01*
X157437789Y-76145637D01*
X157368097Y-76140652D01*
X157312164Y-76098781D01*
X157305321Y-76088631D01*
X157230472Y-75964815D01*
X157230470Y-75964813D01*
X157230469Y-75964811D01*
X157110188Y-75844530D01*
X157065202Y-75817335D01*
X156964606Y-75756522D01*
X156802196Y-75705914D01*
X156802194Y-75705913D01*
X156802192Y-75705913D01*
X156752778Y-75701423D01*
X156731616Y-75699500D01*
X155018384Y-75699500D01*
X154999145Y-75701248D01*
X154947807Y-75705913D01*
X154785393Y-75756522D01*
X154639811Y-75844530D01*
X154519530Y-75964811D01*
X154431522Y-76110393D01*
X154380913Y-76272807D01*
X154375782Y-76329275D01*
X154374500Y-76343384D01*
X154374500Y-76856616D01*
X154376270Y-76876096D01*
X154380913Y-76927192D01*
X154431522Y-77089606D01*
X154444667Y-77111350D01*
X154462503Y-77178905D01*
X154440985Y-77245379D01*
X154386945Y-77289666D01*
X154338550Y-77299500D01*
X143999500Y-77299500D01*
X143932461Y-77279815D01*
X143886706Y-77227011D01*
X143875500Y-77175500D01*
X143875500Y-75615633D01*
X143895185Y-75548594D01*
X143947989Y-75502839D01*
X144017147Y-75492895D01*
X144080703Y-75521920D01*
X144099819Y-75542748D01*
X144144896Y-75604792D01*
X144295213Y-75755109D01*
X144467179Y-75880048D01*
X144467181Y-75880049D01*
X144467184Y-75880051D01*
X144656588Y-75976557D01*
X144858757Y-76042246D01*
X145068713Y-76075500D01*
X145068714Y-76075500D01*
X145281286Y-76075500D01*
X145281287Y-76075500D01*
X145491243Y-76042246D01*
X145693412Y-75976557D01*
X145882816Y-75880051D01*
X145969138Y-75817335D01*
X146054786Y-75755109D01*
X146054788Y-75755106D01*
X146054792Y-75755104D01*
X146205104Y-75604792D01*
X146205106Y-75604788D01*
X146205109Y-75604786D01*
X146330048Y-75432820D01*
X146330047Y-75432820D01*
X146330051Y-75432816D01*
X146416795Y-75262572D01*
X147115979Y-75262572D01*
X147151328Y-75286192D01*
X147333306Y-75361569D01*
X147333318Y-75361572D01*
X147526504Y-75399999D01*
X147526508Y-75400000D01*
X147723492Y-75400000D01*
X147723495Y-75399999D01*
X147916681Y-75361572D01*
X147916693Y-75361569D01*
X148098676Y-75286190D01*
X148098680Y-75286187D01*
X148134019Y-75262573D01*
X148134020Y-75262572D01*
X147625001Y-74753553D01*
X147625000Y-74753553D01*
X147115979Y-75262572D01*
X146416795Y-75262572D01*
X146426557Y-75243412D01*
X146492246Y-75041243D01*
X146511385Y-74920400D01*
X146541314Y-74857267D01*
X146600625Y-74820335D01*
X146670488Y-74821333D01*
X146728721Y-74859942D01*
X146736960Y-74870908D01*
X146762425Y-74909020D01*
X147271446Y-74400000D01*
X147271446Y-74399999D01*
X147978553Y-74399999D01*
X147978553Y-74400001D01*
X148487572Y-74909020D01*
X148487573Y-74909019D01*
X148511187Y-74873680D01*
X148511190Y-74873676D01*
X148586569Y-74691693D01*
X148586572Y-74691681D01*
X148624999Y-74498495D01*
X148625000Y-74498492D01*
X148625000Y-74301508D01*
X148624999Y-74301504D01*
X148586572Y-74108318D01*
X148586569Y-74108306D01*
X148511192Y-73926328D01*
X148487572Y-73890979D01*
X147978553Y-74399999D01*
X147271446Y-74399999D01*
X146762426Y-73890978D01*
X146762426Y-73890979D01*
X146738813Y-73926318D01*
X146738809Y-73926325D01*
X146663429Y-74108310D01*
X146663427Y-74108316D01*
X146652622Y-74162637D01*
X146620236Y-74224548D01*
X146559520Y-74259122D01*
X146489751Y-74255381D01*
X146433079Y-74214514D01*
X146420520Y-74194740D01*
X146394121Y-74142929D01*
X146330051Y-74017184D01*
X146330049Y-74017181D01*
X146330048Y-74017179D01*
X146205109Y-73845213D01*
X146054788Y-73694892D01*
X146040420Y-73684454D01*
X146040410Y-73684447D01*
X145882816Y-73569949D01*
X145866122Y-73561443D01*
X145858849Y-73556310D01*
X145843869Y-73537426D01*
X147115978Y-73537426D01*
X147625000Y-74046446D01*
X147625001Y-74046446D01*
X148134020Y-73537426D01*
X148098675Y-73513809D01*
X148098673Y-73513808D01*
X147916693Y-73438430D01*
X147916681Y-73438427D01*
X147723495Y-73400000D01*
X147526504Y-73400000D01*
X147333318Y-73438427D01*
X147333310Y-73438429D01*
X147151325Y-73513809D01*
X147151318Y-73513813D01*
X147115979Y-73537426D01*
X147115978Y-73537426D01*
X145843869Y-73537426D01*
X145842447Y-73535633D01*
X145823259Y-73517512D01*
X145821074Y-73508691D01*
X145815427Y-73501572D01*
X145812807Y-73475309D01*
X145806463Y-73449692D01*
X145809394Y-73441090D01*
X145808492Y-73432047D01*
X145820486Y-73408537D01*
X145828999Y-73383556D01*
X145836585Y-73376981D01*
X145840245Y-73369810D01*
X145854358Y-73361581D01*
X145874054Y-73344515D01*
X145882816Y-73340051D01*
X145937049Y-73300649D01*
X146054786Y-73215109D01*
X146054788Y-73215106D01*
X146054792Y-73215104D01*
X146205104Y-73064792D01*
X146205106Y-73064788D01*
X146205109Y-73064786D01*
X146330048Y-72892820D01*
X146330047Y-72892820D01*
X146330051Y-72892816D01*
X146426557Y-72703412D01*
X146492246Y-72501243D01*
X146525500Y-72291287D01*
X146525500Y-72078713D01*
X146492246Y-71868757D01*
X146426557Y-71666588D01*
X146330051Y-71477184D01*
X146330049Y-71477181D01*
X146330048Y-71477179D01*
X146205109Y-71305213D01*
X146054786Y-71154890D01*
X145882820Y-71029951D01*
X145882115Y-71029591D01*
X145874054Y-71025485D01*
X145823259Y-70977512D01*
X145806463Y-70909692D01*
X145828999Y-70843556D01*
X145874054Y-70804515D01*
X145882816Y-70800051D01*
X145904789Y-70784086D01*
X146054786Y-70675109D01*
X146054788Y-70675106D01*
X146054792Y-70675104D01*
X146205104Y-70524792D01*
X146205106Y-70524788D01*
X146205109Y-70524786D01*
X146322089Y-70363775D01*
X146330051Y-70352816D01*
X146426557Y-70163412D01*
X146492246Y-69961243D01*
X146525500Y-69751287D01*
X146525500Y-69538713D01*
X146492246Y-69328757D01*
X146426557Y-69126588D01*
X146330051Y-68937184D01*
X146330049Y-68937181D01*
X146330048Y-68937179D01*
X146205109Y-68765213D01*
X146054786Y-68614890D01*
X145882820Y-68489951D01*
X145882115Y-68489591D01*
X145874054Y-68485485D01*
X145823259Y-68437512D01*
X145806463Y-68369692D01*
X145828999Y-68303556D01*
X145874054Y-68264515D01*
X145882816Y-68260051D01*
X145999548Y-68175241D01*
X146054786Y-68135109D01*
X146054788Y-68135106D01*
X146054792Y-68135104D01*
X146205104Y-67984792D01*
X146205106Y-67984788D01*
X146205109Y-67984786D01*
X146330048Y-67812820D01*
X146330047Y-67812820D01*
X146330051Y-67812816D01*
X146426557Y-67623412D01*
X146492246Y-67421243D01*
X146525500Y-67211287D01*
X146525500Y-66998713D01*
X146492246Y-66788757D01*
X146426557Y-66586588D01*
X146330051Y-66397184D01*
X146330049Y-66397181D01*
X146330048Y-66397179D01*
X146205109Y-66225213D01*
X146054786Y-66074890D01*
X145882820Y-65949951D01*
X145882115Y-65949591D01*
X145874054Y-65945485D01*
X145823259Y-65897512D01*
X145806463Y-65829692D01*
X145828999Y-65763556D01*
X145874054Y-65724515D01*
X145882816Y-65720051D01*
X145934047Y-65682830D01*
X146054786Y-65595109D01*
X146054788Y-65595106D01*
X146054792Y-65595104D01*
X146205104Y-65444792D01*
X146205106Y-65444788D01*
X146205109Y-65444786D01*
X146324168Y-65280913D01*
X146330051Y-65272816D01*
X146426557Y-65083412D01*
X146492246Y-64881243D01*
X146525500Y-64671287D01*
X146525500Y-64458713D01*
X146492246Y-64248757D01*
X146426557Y-64046588D01*
X146330051Y-63857184D01*
X146330049Y-63857181D01*
X146330048Y-63857179D01*
X146205109Y-63685213D01*
X146054786Y-63534890D01*
X145882820Y-63409951D01*
X145882115Y-63409591D01*
X145874054Y-63405485D01*
X145823259Y-63357512D01*
X145806463Y-63289692D01*
X145828999Y-63223556D01*
X145874054Y-63184515D01*
X145882816Y-63180051D01*
X145937572Y-63140269D01*
X146054786Y-63055109D01*
X146054788Y-63055106D01*
X146054792Y-63055104D01*
X146205104Y-62904792D01*
X146205106Y-62904788D01*
X146205109Y-62904786D01*
X146330048Y-62732820D01*
X146330047Y-62732820D01*
X146330051Y-62732816D01*
X146426557Y-62543412D01*
X146492246Y-62341243D01*
X146509615Y-62231582D01*
X146925001Y-62231582D01*
X146931408Y-62302102D01*
X146931409Y-62302107D01*
X146981981Y-62464396D01*
X147069927Y-62609877D01*
X147190122Y-62730072D01*
X147335604Y-62818019D01*
X147335603Y-62818019D01*
X147497894Y-62868590D01*
X147497893Y-62868590D01*
X147568427Y-62874999D01*
X148174999Y-62874999D01*
X148175000Y-62874998D01*
X148175000Y-62225000D01*
X146925001Y-62225000D01*
X146925001Y-62231582D01*
X146509615Y-62231582D01*
X146525500Y-62131287D01*
X146525500Y-61918713D01*
X146522615Y-61900500D01*
X146496405Y-61735013D01*
X146493778Y-61718427D01*
X146925000Y-61718427D01*
X146925000Y-61725000D01*
X148175000Y-61725000D01*
X148175000Y-61075000D01*
X147568417Y-61075000D01*
X147497897Y-61081408D01*
X147497892Y-61081409D01*
X147335603Y-61131981D01*
X147190122Y-61219927D01*
X147069927Y-61340122D01*
X146981980Y-61485604D01*
X146931409Y-61647893D01*
X146925000Y-61718427D01*
X146493778Y-61718427D01*
X146492264Y-61708872D01*
X146492246Y-61708757D01*
X146426557Y-61506588D01*
X146330051Y-61317184D01*
X146330049Y-61317181D01*
X146330048Y-61317179D01*
X146205109Y-61145213D01*
X146091569Y-61031673D01*
X146058084Y-60970350D01*
X146063068Y-60900658D01*
X146104940Y-60844725D01*
X146135915Y-60827810D01*
X146267331Y-60778796D01*
X146382546Y-60692546D01*
X146468796Y-60577331D01*
X146519091Y-60442483D01*
X146525500Y-60382873D01*
X146525499Y-58587128D01*
X146519091Y-58527517D01*
X146468796Y-58392669D01*
X146468795Y-58392668D01*
X146468793Y-58392664D01*
X146382547Y-58277455D01*
X146382544Y-58277452D01*
X146267335Y-58191206D01*
X146267328Y-58191202D01*
X146132482Y-58140908D01*
X146132483Y-58140908D01*
X146072883Y-58134501D01*
X146072881Y-58134500D01*
X146072873Y-58134500D01*
X146072864Y-58134500D01*
X144277129Y-58134500D01*
X144277123Y-58134501D01*
X144217516Y-58140908D01*
X144082671Y-58191202D01*
X144082665Y-58191206D01*
X144073810Y-58197835D01*
X144008346Y-58222252D01*
X143940073Y-58207400D01*
X143890668Y-58157995D01*
X143875500Y-58098568D01*
X143875500Y-57148543D01*
X146399499Y-57148543D01*
X146437947Y-57341829D01*
X146437950Y-57341839D01*
X146513364Y-57523907D01*
X146513371Y-57523920D01*
X146622860Y-57687781D01*
X146622863Y-57687785D01*
X146763180Y-57828102D01*
X146796665Y-57889425D01*
X146799499Y-57915783D01*
X146799499Y-57952194D01*
X146799498Y-57952194D01*
X146840422Y-58104923D01*
X146857499Y-58134502D01*
X146919475Y-58241849D01*
X146919481Y-58241857D01*
X147038349Y-58360725D01*
X147038355Y-58360730D01*
X149587502Y-60909877D01*
X149620987Y-60971200D01*
X149616003Y-61040892D01*
X149574131Y-61096825D01*
X149508667Y-61121242D01*
X149462931Y-61115944D01*
X149352101Y-61081408D01*
X149281572Y-61075000D01*
X148675000Y-61075000D01*
X148675000Y-62874999D01*
X149281581Y-62874999D01*
X149352102Y-62868591D01*
X149352107Y-62868590D01*
X149514396Y-62818018D01*
X149659877Y-62730072D01*
X149780072Y-62609877D01*
X149868017Y-62464399D01*
X149899483Y-62363420D01*
X149938221Y-62305272D01*
X150002246Y-62277298D01*
X150071231Y-62288379D01*
X150105550Y-62312629D01*
X150189707Y-62396786D01*
X150189711Y-62396789D01*
X150320814Y-62484390D01*
X150320827Y-62484397D01*
X150418853Y-62525000D01*
X150466503Y-62544737D01*
X150621153Y-62575499D01*
X150621156Y-62575500D01*
X150621158Y-62575500D01*
X150778844Y-62575500D01*
X150778845Y-62575499D01*
X150933497Y-62544737D01*
X151063412Y-62490925D01*
X151079172Y-62484397D01*
X151079172Y-62484396D01*
X151079179Y-62484394D01*
X151210289Y-62396789D01*
X151321789Y-62285289D01*
X151409394Y-62154179D01*
X151469737Y-62008497D01*
X151471365Y-62000308D01*
X151503750Y-61938399D01*
X151564465Y-61903824D01*
X151592983Y-61900500D01*
X155120234Y-61900500D01*
X155187273Y-61920185D01*
X155189125Y-61921398D01*
X155320814Y-62009390D01*
X155320827Y-62009397D01*
X155366691Y-62028394D01*
X155466503Y-62069737D01*
X155621153Y-62100499D01*
X155621156Y-62100500D01*
X155621158Y-62100500D01*
X155778844Y-62100500D01*
X155778845Y-62100499D01*
X155933497Y-62069737D01*
X156075430Y-62010947D01*
X156079172Y-62009397D01*
X156079172Y-62009396D01*
X156079179Y-62009394D01*
X156210289Y-61921789D01*
X156321789Y-61810289D01*
X156409394Y-61679179D01*
X156469737Y-61533497D01*
X156500500Y-61378842D01*
X156500500Y-61221158D01*
X156500500Y-61221155D01*
X156500499Y-61221153D01*
X156485393Y-61145213D01*
X156469737Y-61066503D01*
X156433588Y-60979233D01*
X156426120Y-60909764D01*
X156457395Y-60847285D01*
X156460470Y-60844099D01*
X156496169Y-60808399D01*
X156496172Y-60808397D01*
X156608340Y-60640526D01*
X156608347Y-60640513D01*
X156685609Y-60453983D01*
X156685612Y-60453974D01*
X156724999Y-60255958D01*
X156725000Y-60255955D01*
X156725000Y-60205000D01*
X156023067Y-60205000D01*
X156025000Y-60197787D01*
X156025000Y-59712213D01*
X156023067Y-59705000D01*
X156725000Y-59705000D01*
X156725000Y-59654045D01*
X156724999Y-59654041D01*
X156685612Y-59456025D01*
X156685609Y-59456016D01*
X156608347Y-59269486D01*
X156608340Y-59269473D01*
X156496170Y-59101600D01*
X156496167Y-59101596D01*
X156353403Y-58958832D01*
X156353399Y-58958829D01*
X156185526Y-58846659D01*
X156185513Y-58846652D01*
X155998984Y-58769390D01*
X155998977Y-58769388D01*
X155950000Y-58759645D01*
X155950000Y-59545382D01*
X155899554Y-59494936D01*
X155825445Y-59452149D01*
X155742787Y-59430000D01*
X155657213Y-59430000D01*
X155574555Y-59452149D01*
X155500446Y-59494936D01*
X155450000Y-59545382D01*
X155450000Y-58759646D01*
X155449999Y-58759645D01*
X155401022Y-58769388D01*
X155401015Y-58769390D01*
X155214486Y-58846652D01*
X155214473Y-58846659D01*
X155046600Y-58958829D01*
X155046596Y-58958832D01*
X154903832Y-59101596D01*
X154903829Y-59101600D01*
X154791659Y-59269473D01*
X154791652Y-59269486D01*
X154714390Y-59456016D01*
X154714387Y-59456025D01*
X154675000Y-59654041D01*
X154675000Y-59705000D01*
X155376933Y-59705000D01*
X155375000Y-59712213D01*
X155375000Y-60197787D01*
X155376933Y-60205000D01*
X154675000Y-60205000D01*
X154675000Y-60255958D01*
X154714387Y-60453974D01*
X154714390Y-60453983D01*
X154745069Y-60528048D01*
X154752538Y-60597517D01*
X154721263Y-60659996D01*
X154661174Y-60695648D01*
X154630508Y-60699500D01*
X151919492Y-60699500D01*
X151852453Y-60679815D01*
X151806698Y-60627011D01*
X151796754Y-60557853D01*
X151804931Y-60528048D01*
X151835609Y-60453983D01*
X151835612Y-60453974D01*
X151874999Y-60255958D01*
X151875000Y-60255955D01*
X151875000Y-60205000D01*
X151173067Y-60205000D01*
X151175000Y-60197787D01*
X151175000Y-59712213D01*
X151173067Y-59705000D01*
X151875000Y-59705000D01*
X151875000Y-59654045D01*
X151874999Y-59654041D01*
X151835612Y-59456025D01*
X151835609Y-59456016D01*
X151758347Y-59269486D01*
X151758340Y-59269473D01*
X151646170Y-59101600D01*
X151646167Y-59101596D01*
X151503403Y-58958832D01*
X151503399Y-58958829D01*
X151335526Y-58846659D01*
X151335513Y-58846652D01*
X151148984Y-58769390D01*
X151148977Y-58769388D01*
X151100000Y-58759645D01*
X151100000Y-59545382D01*
X151049554Y-59494936D01*
X150975445Y-59452149D01*
X150892787Y-59430000D01*
X150807213Y-59430000D01*
X150724555Y-59452149D01*
X150650446Y-59494936D01*
X150600000Y-59545382D01*
X150600000Y-58759646D01*
X150599999Y-58759645D01*
X150551022Y-58769388D01*
X150551015Y-58769390D01*
X150364486Y-58846652D01*
X150364473Y-58846659D01*
X150196600Y-58958829D01*
X150196596Y-58958832D01*
X150053832Y-59101596D01*
X150053829Y-59101600D01*
X149941659Y-59269473D01*
X149941653Y-59269485D01*
X149925952Y-59307390D01*
X149882110Y-59361792D01*
X149815816Y-59383856D01*
X149748117Y-59366576D01*
X149723711Y-59347616D01*
X148203730Y-57827635D01*
X148170245Y-57766312D01*
X148175229Y-57696620D01*
X148188302Y-57671074D01*
X148286632Y-57523914D01*
X148362051Y-57341835D01*
X148377234Y-57265505D01*
X148400500Y-57148543D01*
X148400500Y-56951456D01*
X148362052Y-56758170D01*
X148362051Y-56758169D01*
X148362051Y-56758165D01*
X148316625Y-56648495D01*
X148286635Y-56576092D01*
X148286628Y-56576079D01*
X148177139Y-56412218D01*
X148177136Y-56412214D01*
X148037785Y-56272863D01*
X148037781Y-56272860D01*
X147873920Y-56163371D01*
X147873907Y-56163364D01*
X147691839Y-56087950D01*
X147691829Y-56087947D01*
X147498543Y-56049500D01*
X147498541Y-56049500D01*
X147301459Y-56049500D01*
X147301457Y-56049500D01*
X147108170Y-56087947D01*
X147108160Y-56087950D01*
X146926092Y-56163364D01*
X146926079Y-56163371D01*
X146762218Y-56272860D01*
X146762214Y-56272863D01*
X146622863Y-56412214D01*
X146622860Y-56412218D01*
X146513371Y-56576079D01*
X146513364Y-56576092D01*
X146437950Y-56758160D01*
X146437947Y-56758170D01*
X146399500Y-56951456D01*
X146399500Y-56951459D01*
X146399500Y-57148541D01*
X146399500Y-57148543D01*
X146399499Y-57148543D01*
X143875500Y-57148543D01*
X143875500Y-55799500D01*
X143895185Y-55732461D01*
X143947989Y-55686706D01*
X143999500Y-55675500D01*
X149623792Y-55675500D01*
X149690831Y-55695185D01*
G37*
%TD.AperFunction*%
%TA.AperFunction,Conductor*%
G36*
X152822000Y-68389001D02*
G01*
X152980115Y-68389001D01*
X152980119Y-68389000D01*
X154473846Y-68389000D01*
X154540885Y-68408685D01*
X154561527Y-68425319D01*
X154713181Y-68576973D01*
X154746666Y-68638296D01*
X154749500Y-68664654D01*
X154749500Y-68988330D01*
X154749499Y-68988348D01*
X154749499Y-69154054D01*
X154749498Y-69154054D01*
X154749499Y-69154057D01*
X154790423Y-69306785D01*
X154793338Y-69311834D01*
X154794241Y-69313398D01*
X154869477Y-69443712D01*
X154869481Y-69443717D01*
X154942702Y-69516938D01*
X154973735Y-69573771D01*
X154974650Y-69573494D01*
X154975982Y-69577887D01*
X154976187Y-69578261D01*
X154976386Y-69579215D01*
X154976420Y-69579330D01*
X155029221Y-69706804D01*
X155029228Y-69706817D01*
X155105885Y-69821541D01*
X155105888Y-69821545D01*
X155203454Y-69919111D01*
X155208166Y-69922978D01*
X155206908Y-69924509D01*
X155245868Y-69971118D01*
X155254582Y-70040442D01*
X155224434Y-70103472D01*
X155179630Y-70135180D01*
X155045824Y-70190604D01*
X155045814Y-70190609D01*
X154914711Y-70278210D01*
X154914707Y-70278213D01*
X154803213Y-70389707D01*
X154803210Y-70389711D01*
X154715609Y-70520814D01*
X154715602Y-70520827D01*
X154655264Y-70666498D01*
X154655261Y-70666508D01*
X154624362Y-70821848D01*
X154591977Y-70883759D01*
X154590426Y-70885337D01*
X154205286Y-71270478D01*
X154093481Y-71382282D01*
X154093480Y-71382284D01*
X154046543Y-71463583D01*
X154043361Y-71469094D01*
X154043359Y-71469096D01*
X154014425Y-71519209D01*
X154014424Y-71519210D01*
X154014423Y-71519215D01*
X153973499Y-71671943D01*
X153973499Y-71671945D01*
X153973499Y-71840046D01*
X153973500Y-71840059D01*
X153973500Y-72726394D01*
X153973499Y-72726412D01*
X153973499Y-72892118D01*
X153973498Y-72892118D01*
X154014424Y-73044853D01*
X154014425Y-73044854D01*
X154041922Y-73092479D01*
X154041924Y-73092481D01*
X154093479Y-73181778D01*
X154093481Y-73181781D01*
X154212349Y-73300649D01*
X154212355Y-73300654D01*
X154824520Y-73912819D01*
X154858005Y-73974142D01*
X154853021Y-74043834D01*
X154811149Y-74099767D01*
X154745685Y-74124184D01*
X154736839Y-74124500D01*
X151900097Y-74124500D01*
X151833058Y-74104815D01*
X151812416Y-74088181D01*
X151286031Y-73561796D01*
X151252546Y-73500473D01*
X151249712Y-73474115D01*
X151249712Y-69420157D01*
X151249711Y-69420153D01*
X151246297Y-69407412D01*
X151235613Y-69367536D01*
X151219335Y-69306782D01*
X151219335Y-69306781D01*
X151208790Y-69267430D01*
X151208789Y-69267427D01*
X151157259Y-69178176D01*
X151152927Y-69170672D01*
X151129732Y-69130496D01*
X151085320Y-69086084D01*
X151080651Y-69080107D01*
X151079971Y-69078394D01*
X151075268Y-69072663D01*
X151010858Y-68976267D01*
X151010855Y-68976263D01*
X150999457Y-68964865D01*
X150965972Y-68903542D01*
X150970956Y-68833850D01*
X150999454Y-68789506D01*
X151363643Y-68425319D01*
X151424966Y-68391834D01*
X151451324Y-68389000D01*
X152821996Y-68389000D01*
X152822000Y-68389001D01*
G37*
%TD.AperFunction*%
%TA.AperFunction,Conductor*%
G36*
X157066942Y-69995185D02*
G01*
X157087584Y-70011819D01*
X157363181Y-70287416D01*
X157396666Y-70348739D01*
X157399500Y-70375097D01*
X157399500Y-71635188D01*
X157379815Y-71702227D01*
X157327011Y-71747982D01*
X157257853Y-71757926D01*
X157194297Y-71728901D01*
X157187819Y-71722869D01*
X157109877Y-71644927D01*
X156964395Y-71556980D01*
X156964396Y-71556980D01*
X156802105Y-71506409D01*
X156802106Y-71506409D01*
X156731572Y-71500000D01*
X156218834Y-71500000D01*
X156151795Y-71480315D01*
X156106040Y-71427511D01*
X156096096Y-71358353D01*
X156115732Y-71307108D01*
X156134394Y-71279179D01*
X156194737Y-71133497D01*
X156225500Y-70978842D01*
X156225500Y-70821158D01*
X156225500Y-70821155D01*
X156225499Y-70821153D01*
X156222189Y-70804514D01*
X156194737Y-70666503D01*
X156194735Y-70666498D01*
X156134397Y-70520827D01*
X156134390Y-70520814D01*
X156046789Y-70389711D01*
X156046786Y-70389707D01*
X155935292Y-70278213D01*
X155935288Y-70278210D01*
X155885046Y-70244639D01*
X155879353Y-70237827D01*
X155871335Y-70234019D01*
X155857293Y-70211430D01*
X155840241Y-70191026D01*
X155839134Y-70182219D01*
X155834448Y-70174680D01*
X155834847Y-70148084D01*
X155831534Y-70121701D01*
X155835364Y-70113694D01*
X155835498Y-70104819D01*
X155850211Y-70082663D01*
X155861689Y-70058674D01*
X155870258Y-70052475D01*
X155874151Y-70046615D01*
X155900434Y-70030651D01*
X155904126Y-70027981D01*
X155905269Y-70027479D01*
X155981811Y-69995775D01*
X155989960Y-69990330D01*
X155999959Y-69985944D01*
X156024222Y-69982826D01*
X156047562Y-69975520D01*
X156049770Y-69975500D01*
X156999903Y-69975500D01*
X157066942Y-69995185D01*
G37*
%TD.AperFunction*%
%TA.AperFunction,Conductor*%
G36*
X154499310Y-66803256D02*
G01*
X154504394Y-66802780D01*
X154507726Y-66804505D01*
X154511081Y-66805002D01*
X154511128Y-66804767D01*
X154515926Y-66805721D01*
X154516719Y-66805839D01*
X154517096Y-66805953D01*
X154517103Y-66805956D01*
X154614992Y-66825426D01*
X154676903Y-66857811D01*
X154711477Y-66918527D01*
X154707738Y-66988296D01*
X154678483Y-67034723D01*
X154561525Y-67151682D01*
X154539494Y-67163712D01*
X154519740Y-67179194D01*
X154506483Y-67181737D01*
X154500205Y-67185166D01*
X154491762Y-67184562D01*
X154473846Y-67188000D01*
X154173352Y-67188000D01*
X154106313Y-67168315D01*
X154060558Y-67115511D01*
X154050614Y-67046353D01*
X154079639Y-66982797D01*
X154110229Y-66957269D01*
X154240687Y-66880117D01*
X154283984Y-66836820D01*
X154345307Y-66803334D01*
X154371666Y-66800500D01*
X154480724Y-66800500D01*
X154499310Y-66803256D01*
G37*
%TD.AperFunction*%
%TA.AperFunction,Conductor*%
G36*
X162190269Y-62786716D02*
G01*
X162240771Y-62782742D01*
X162309148Y-62797106D01*
X162358905Y-62846157D01*
X162374500Y-62906360D01*
X162374500Y-63674366D01*
X162354815Y-63741405D01*
X162302011Y-63787160D01*
X162232853Y-63797104D01*
X162169297Y-63768079D01*
X162150182Y-63747251D01*
X162105109Y-63685214D01*
X162105105Y-63685209D01*
X161954786Y-63534890D01*
X161782817Y-63409949D01*
X161773504Y-63405204D01*
X161722707Y-63357230D01*
X161705912Y-63289409D01*
X161728449Y-63223274D01*
X161773507Y-63184232D01*
X161782555Y-63179622D01*
X161836716Y-63140270D01*
X161836717Y-63140270D01*
X161204408Y-62507962D01*
X161267993Y-62490925D01*
X161382007Y-62425099D01*
X161475099Y-62332007D01*
X161540925Y-62217993D01*
X161557962Y-62154408D01*
X162190269Y-62786716D01*
G37*
%TD.AperFunction*%
%TA.AperFunction,Conductor*%
G36*
X162336920Y-60286708D02*
G01*
X162371277Y-60347547D01*
X162374500Y-60375633D01*
X162374500Y-61143639D01*
X162354815Y-61210678D01*
X162302011Y-61256433D01*
X162240771Y-61267257D01*
X162190269Y-61263282D01*
X161557962Y-61895590D01*
X161540925Y-61832007D01*
X161475099Y-61717993D01*
X161382007Y-61624901D01*
X161267993Y-61559075D01*
X161204409Y-61542037D01*
X161836716Y-60909728D01*
X161782547Y-60870373D01*
X161782547Y-60870372D01*
X161773500Y-60865763D01*
X161722706Y-60817788D01*
X161705912Y-60749966D01*
X161728451Y-60683832D01*
X161773508Y-60644793D01*
X161782816Y-60640051D01*
X161895953Y-60557853D01*
X161954786Y-60515109D01*
X161954788Y-60515106D01*
X161954792Y-60515104D01*
X162105104Y-60364792D01*
X162150181Y-60302747D01*
X162205511Y-60260082D01*
X162275124Y-60254103D01*
X162336920Y-60286708D01*
G37*
%TD.AperFunction*%
%TD*%
M02*
