%TF.GenerationSoftware,KiCad,Pcbnew,9.0.7*%
%TF.CreationDate,2026-04-04T20:26:23+11:00*%
%TF.ProjectId,RP2350-Micro-Devboard,52503233-3530-42d4-9d69-63726f2d4465,rev?*%
%TF.SameCoordinates,Original*%
%TF.FileFunction,Legend,Top*%
%TF.FilePolarity,Positive*%
%FSLAX46Y46*%
G04 Gerber Fmt 4.6, Leading zero omitted, Abs format (unit mm)*
G04 Created by KiCad (PCBNEW 9.0.7) date 2026-04-04 20:26:23*
%MOMM*%
%LPD*%
G01*
G04 APERTURE LIST*
%ADD10C,0.120000*%
G04 APERTURE END LIST*
D10*
%TO.C,C16*%
X154865000Y-62657836D02*
X154865000Y-62442164D01*
X155585000Y-62657836D02*
X155585000Y-62442164D01*
%TO.C,J3*%
X159695000Y-73455000D02*
X159695000Y-58105000D01*
X162455000Y-58105000D02*
X159695000Y-58105000D01*
X162455000Y-73455000D02*
X159695000Y-73455000D01*
X162455000Y-73455000D02*
X162455000Y-58105000D01*
X162455000Y-74725000D02*
X162455000Y-76105000D01*
X162455000Y-76105000D02*
X161075000Y-76105000D01*
%TO.C,Y1*%
X149140000Y-73690000D02*
X149140000Y-77110000D01*
X149140000Y-77110000D02*
X153260000Y-77110000D01*
%TO.C,C12*%
X147240000Y-59790580D02*
X147240000Y-59509420D01*
X148260000Y-59790580D02*
X148260000Y-59509420D01*
%TO.C,C7*%
X157415000Y-70272164D02*
X157415000Y-70487836D01*
X158135000Y-70272164D02*
X158135000Y-70487836D01*
%TO.C,C10*%
X158340000Y-70262164D02*
X158340000Y-70477836D01*
X159060000Y-70262164D02*
X159060000Y-70477836D01*
%TO.C,R3*%
X152920000Y-63321359D02*
X152920000Y-63628641D01*
X153680000Y-63321359D02*
X153680000Y-63628641D01*
%TO.C,J2*%
X143795000Y-58105000D02*
X145175000Y-58105000D01*
X143795000Y-59485000D02*
X143795000Y-58105000D01*
X143795000Y-60755000D02*
X143795000Y-76105000D01*
X143795000Y-60755000D02*
X146555000Y-60755000D01*
X143795000Y-76105000D02*
X146555000Y-76105000D01*
X146555000Y-60755000D02*
X146555000Y-76105000D01*
%TO.C,C15*%
X158390000Y-63082836D02*
X158390000Y-62867164D01*
X159110000Y-63082836D02*
X159110000Y-62867164D01*
%TO.C,C13*%
X148240000Y-76327836D02*
X148240000Y-76112164D01*
X148960000Y-76327836D02*
X148960000Y-76112164D01*
%TO.C,C4*%
X155790000Y-62662836D02*
X155790000Y-62447164D01*
X156510000Y-62662836D02*
X156510000Y-62447164D01*
%TO.C,C5*%
X158122164Y-65965000D02*
X158337836Y-65965000D01*
X158122164Y-66685000D02*
X158337836Y-66685000D01*
%TO.C,R4*%
X153870000Y-63321359D02*
X153870000Y-63628641D01*
X154630000Y-63321359D02*
X154630000Y-63628641D01*
%TO.C,C8*%
X147962836Y-67190000D02*
X147747164Y-67190000D01*
X147962836Y-67910000D02*
X147747164Y-67910000D01*
%TO.C,C11*%
X151565000Y-62759420D02*
X151565000Y-63040580D01*
X152585000Y-62759420D02*
X152585000Y-63040580D01*
%TO.C,R5*%
X153420000Y-74411359D02*
X153420000Y-74718641D01*
X154180000Y-74411359D02*
X154180000Y-74718641D01*
%TO.C,R8*%
X158370000Y-61268641D02*
X158370000Y-60961359D01*
X159130000Y-61268641D02*
X159130000Y-60961359D01*
%TO.C,C9*%
X154017164Y-72815000D02*
X154232836Y-72815000D01*
X154017164Y-73535000D02*
X154232836Y-73535000D01*
%TO.C,C6*%
X147821693Y-70644190D02*
X147669190Y-70796693D01*
X148330810Y-71153307D02*
X148178307Y-71305810D01*
%TO.C,C2*%
X156057836Y-72815000D02*
X155842164Y-72815000D01*
X156057836Y-73535000D02*
X155842164Y-73535000D01*
%TO.C,J4*%
X149150000Y-58105000D02*
X149150000Y-59655000D01*
X149450000Y-55305000D02*
X149450000Y-58105000D01*
X149450000Y-58105000D02*
X149150000Y-58105000D01*
X154200000Y-61355000D02*
X154600000Y-60905000D01*
X154600000Y-60905000D02*
X155000000Y-61355000D01*
X155000000Y-61355000D02*
X154200000Y-61355000D01*
X157150000Y-55305000D02*
X157150000Y-58105000D01*
X157450000Y-58105000D02*
X157150000Y-58105000D01*
X157450000Y-58105000D02*
X157450000Y-59655000D01*
%TO.C,U1*%
X148652500Y-61140000D02*
X150172500Y-61140000D01*
X148652500Y-61190000D02*
X148652500Y-61140000D01*
X148652500Y-63090000D02*
X148652500Y-62310000D01*
X148652500Y-64260000D02*
X148652500Y-64210000D01*
X150172500Y-61140000D02*
X150172500Y-62140000D01*
X150172500Y-63260000D02*
X150172500Y-64260000D01*
X150172500Y-64260000D02*
X148652500Y-64260000D01*
X148352500Y-62650000D02*
X147872500Y-62650000D01*
X148112500Y-62320000D01*
X148352500Y-62650000D01*
G36*
X148352500Y-62650000D02*
G01*
X147872500Y-62650000D01*
X148112500Y-62320000D01*
X148352500Y-62650000D01*
G37*
%TO.C,C3*%
X157933601Y-64707282D02*
X158086104Y-64554779D01*
X158442718Y-65216399D02*
X158595221Y-65063896D01*
%TO.C,U2*%
X149540000Y-72172500D02*
X149540000Y-71722500D01*
X149990000Y-64952500D02*
X149540000Y-64952500D01*
X149990000Y-72172500D02*
X149540000Y-72172500D01*
X156310000Y-64952500D02*
X156760000Y-64952500D01*
X156310000Y-72172500D02*
X156760000Y-72172500D01*
X156760000Y-64952500D02*
X156760000Y-65402500D01*
X156760000Y-72172500D02*
X156760000Y-71722500D01*
%TO.C,C14*%
X153440000Y-76317164D02*
X153440000Y-76532836D01*
X154160000Y-76317164D02*
X154160000Y-76532836D01*
%TO.C,C1*%
X150702836Y-72790000D02*
X150487164Y-72790000D01*
X150702836Y-73510000D02*
X150487164Y-73510000D01*
%TD*%
M02*
